<svg id="Livello_1" data-name="Livello 1" xmlns="http://www.w3.org/2000/svg" xmlns:xlink="http://www.w3.org/1999/xlink" viewBox="0 0 288 216.2"><defs><style>.cls-1{fill:url(#Sfumatura_senza_nome_5);}.cls-2{fill:#fff;}</style><linearGradient id="Sfumatura_senza_nome_5" x1="-10.81" y1="18.72" x2="298.81" y2="197.48" gradientUnits="userSpaceOnUse"><stop offset="0" stop-color="#a32400"/><stop offset="1" stop-color="#ff940a"/></linearGradient></defs><title>logo_1</title><rect class="cls-1" width="288" height="216.2"/><path class="cls-2" d="M26.71,136.59a6.72,6.72,0,0,0-1.46-.77q-.81-.31-1.65-.57l-.93-.3a5.33,5.33,0,0,1-.79-.35,2.06,2.06,0,0,1-.55-.43.87.87,0,0,1-.2-.56,1.15,1.15,0,0,1,.14-.55,1.2,1.2,0,0,1,.39-.45,2.12,2.12,0,0,1,.64-.31,3.36,3.36,0,0,1,.88-.11,2.27,2.27,0,0,1,.77.13,4.09,4.09,0,0,1,.71.3,5.63,5.63,0,0,1,.6.38,3.48,3.48,0,0,1,.43.38h0l.22.15a.43.43,0,0,0,.22.06.37.37,0,0,0,.19-.08,2,2,0,0,0,.26-.2,3.58,3.58,0,0,0,.29-.27l.27-.3h0l.27-.28a1.13,1.13,0,0,0,.13-.2.43.43,0,0,0,.06-.22.5.5,0,0,0-.12-.28,3.09,3.09,0,0,0-.31-.34,4.62,4.62,0,0,0-.41-.34,3.94,3.94,0,0,0-.44-.31,6.2,6.2,0,0,0-1.55-.69,5.56,5.56,0,0,0-1.64-.26,6.5,6.5,0,0,0-1.94.27,4.65,4.65,0,0,0-1.47.76,3.26,3.26,0,0,0-.95,1.17,3.39,3.39,0,0,0-.34,1.51,3,3,0,0,0,.28,1.33,3.26,3.26,0,0,0,.81,1.07,6.24,6.24,0,0,0,1.36.86,15,15,0,0,0,1.9.71l.94.28a4.62,4.62,0,0,1,.84.36,2.34,2.34,0,0,1,.61.49,1,1,0,0,1,.23.67,1.45,1.45,0,0,1-.18.72,1.82,1.82,0,0,1-.49.55,2.54,2.54,0,0,1-.74.35,3.36,3.36,0,0,1-.92.12,2.72,2.72,0,0,1-.76-.12,4.6,4.6,0,0,1-.81-.33,8,8,0,0,1-.8-.47,5.78,5.78,0,0,1-.7-.57h0l0,0a.86.86,0,0,0-.17-.15.34.34,0,0,0-.23-.08.35.35,0,0,0-.21.08c-.09.05-.18.12-.28.19a3.88,3.88,0,0,0-.31.26l-.28.26-.17.16-.13.13a.59.59,0,0,0-.21.39.68.68,0,0,0,.2.41v0h0a5.52,5.52,0,0,0,1,.93,6.16,6.16,0,0,0,1.18.71,6.47,6.47,0,0,0,1.3.46,6.24,6.24,0,0,0,1.36.16,6.49,6.49,0,0,0,2-.3,5,5,0,0,0,1.62-.86A3.9,3.9,0,0,0,27.75,141a3.85,3.85,0,0,0,.39-1.75,2.91,2.91,0,0,0-.39-1.54A3.85,3.85,0,0,0,26.71,136.59Z"/><path class="cls-2" d="M36.13,130.16a.45.45,0,0,0-.3-.09h-1a.5.5,0,0,0-.51.3q-2.58,6.28-3.92,9.44L29,143a.31.31,0,0,0,.09.24.41.41,0,0,0,.31.09h1.85a.35.35,0,0,0,.33-.28l.88-2.07h5.64L39,143a.41.41,0,0,0,.13.22.45.45,0,0,0,.26.06h1.71a.55.55,0,0,0,.4-.11.4.4,0,0,0,.09-.25v-.05l-5.3-12.52A.51.51,0,0,0,36.13,130.16Zm-2.72,8.35,1.9-4.6,1.88,4.6Z"/><path class="cls-2" d="M53.83,130.07H52a.48.48,0,0,0-.21.06.37.37,0,0,0-.18.22v8.25l-5.85-8.25a.47.47,0,0,0-.23-.21.82.82,0,0,0-.29-.07H43.18a.34.34,0,0,0-.29.12.4.4,0,0,0-.1.28V142.9a.35.35,0,0,0,.39.4H45c.28,0,.41-.13.39-.4v-8.8l6.19,8.9a2.2,2.2,0,0,0,.19.21.26.26,0,0,0,.19.09h1.89c.29,0,.44-.13.44-.4V130.47a.34.34,0,0,0-.15-.29A.53.53,0,0,0,53.83,130.07Z"/><path class="cls-2" d="M65.68,132.37a.52.52,0,0,0,.12-.34v-1.56a.36.36,0,0,0-.16-.3.53.53,0,0,0-.29-.1h-9.1a.45.45,0,0,0-.31.12.35.35,0,0,0-.13.28V132a.43.43,0,0,0,.44.47h3.24v10.34a.35.35,0,0,0,0,.17.76.76,0,0,0,.11.14.67.67,0,0,0,.14.11.43.43,0,0,0,.14,0H61.7a.3.3,0,0,0,.16-.05.69.69,0,0,0,.13-.11l.09-.15a.4.4,0,0,0,0-.15V132.5h3.24A.4.4,0,0,0,65.68,132.37Z"/><path class="cls-2" d="M72.1,130.16a.45.45,0,0,0-.3-.09h-1a.54.54,0,0,0-.35.09.51.51,0,0,0-.17.21q-2.58,6.28-3.92,9.44C65.44,141.9,65,143,65,143a.35.35,0,0,0,.08.24.43.43,0,0,0,.31.09h1.85a.33.33,0,0,0,.33-.28l.88-2.07H74.1L75,143a.35.35,0,0,0,.39.28h1.71a.53.53,0,0,0,.4-.11.4.4,0,0,0,.09-.25v-.05l-5.3-12.52A.44.44,0,0,0,72.1,130.16Zm-2.71,8.35,1.89-4.6,1.88,4.6Z"/><path class="cls-2" d="M93.19,130.07H84.73c-.26,0-.39.15-.39.43v12.42a.37.37,0,0,0,.11.29.45.45,0,0,0,.28.09h1.84c.27,0,.4-.13.4-.38v-4.5h4.77a.31.31,0,0,0,.28-.13.47.47,0,0,0,.09-.28V136.4a.36.36,0,0,0-.11-.3.49.49,0,0,0-.3-.09H87V132.5h6.2a.45.45,0,0,0,.34-.12.44.44,0,0,0,.11-.29v-1.56a.59.59,0,0,0-.1-.33A.42.42,0,0,0,93.19,130.07Z"/><path class="cls-2" d="M104.69,140.87H98.13v-3.25H103a.31.31,0,0,0,.28-.12.47.47,0,0,0,.09-.28V135.6a.39.39,0,0,0-.1-.31.35.35,0,0,0-.29-.08H98.13V132.5h6.33a.45.45,0,0,0,.34-.12.44.44,0,0,0,.11-.29v-1.56a.52.52,0,0,0-.1-.33.39.39,0,0,0-.33-.13H95.9c-.26,0-.39.15-.39.43v12.42a.34.34,0,0,0,.11.29.45.45,0,0,0,.28.09h8.81a.34.34,0,0,0,.39-.38V141.3A.5.5,0,0,0,105,141C105,140.9,104.86,140.87,104.69,140.87Z"/><path class="cls-2" d="M114.67,143.3a.42.42,0,0,0,.48-.48v-4.26H118a3.94,3.94,0,0,0,1.65-.35,4.38,4.38,0,0,0,1.3-.94,4.48,4.48,0,0,0,.85-1.35,4.3,4.3,0,0,0,.3-1.58,4.39,4.39,0,0,0-.31-1.61,4.44,4.44,0,0,0-.87-1.37,4,4,0,0,0-1.31-.93,3.84,3.84,0,0,0-1.66-.36h-5a.46.46,0,0,0-.36.14.51.51,0,0,0-.13.37v12.24a.45.45,0,0,0,.13.36.48.48,0,0,0,.35.12Zm.48-10.91h2.47a1.64,1.64,0,0,1,.74.16,1.86,1.86,0,0,1,.59.44,1.91,1.91,0,0,1,.39.62,1.9,1.9,0,0,1,0,1.43,1.91,1.91,0,0,1-.39.62,1.81,1.81,0,0,1-.59.42,1.7,1.7,0,0,1-.74.16h-2.47Z"/><path class="cls-2" d="M133.9,142.89l-2.27-4.77a4.05,4.05,0,0,0,.88-.66,4.27,4.27,0,0,0,.68-.87,4.1,4.1,0,0,0,.44-1,4.45,4.45,0,0,0,.16-1.16,4.34,4.34,0,0,0-.33-1.68,4.43,4.43,0,0,0-.91-1.37,4.06,4.06,0,0,0-1.37-.93,4.17,4.17,0,0,0-1.7-.35h-5.37c-.26,0-.39.15-.39.43v12.42a.34.34,0,0,0,.11.29.45.45,0,0,0,.28.09H126a.34.34,0,0,0,.39-.38v-4.24h2.74l2,4.34a.36.36,0,0,0,.34.28h2.13a.43.43,0,0,0,.31-.09.35.35,0,0,0,.08-.24.06.06,0,0,0,0,0A.08.08,0,0,1,133.9,142.89Zm-2.77-7.79a2,2,0,0,1-.35.6,1.66,1.66,0,0,1-.56.41,1.92,1.92,0,0,1-.77.15h-3.11V132.5h3a1.73,1.73,0,0,1,.76.17,2.17,2.17,0,0,1,.59.44,1.88,1.88,0,0,1,.37.6,1.79,1.79,0,0,1,.14.67A2.18,2.18,0,0,1,131.13,135.1Z"/><path class="cls-2" d="M145.25,142.57a7.5,7.5,0,0,0,1.38-1.07,6.7,6.7,0,0,0,1.06-1.37,7.32,7.32,0,0,0,.69-1.62,6.95,6.95,0,0,0,0-3.62,7.4,7.4,0,0,0-.69-1.63,6.82,6.82,0,0,0-1.06-1.39,7,7,0,0,0-1.38-1.06,7.13,7.13,0,0,0-1.63-.69,6.87,6.87,0,0,0-1.81-.24,6.76,6.76,0,0,0-1.81.24,7.13,7.13,0,0,0-1.63.69,6.7,6.7,0,0,0-1.37,1.06,6.77,6.77,0,0,0-1.75,3,6.95,6.95,0,0,0,0,3.62,6.85,6.85,0,0,0,.68,1.62A6.74,6.74,0,0,0,137,141.5a6.56,6.56,0,0,0,3,1.75,6.76,6.76,0,0,0,1.81.24,6.87,6.87,0,0,0,1.81-.24A7.1,7.1,0,0,0,145.25,142.57ZM141.79,141a4.08,4.08,0,0,1-3.83-2.64,4.79,4.79,0,0,1,0-3.39,4.11,4.11,0,0,1,2.17-2.31,4.11,4.11,0,0,1,3.32,0,4.15,4.15,0,0,1,1.32.93,4.41,4.41,0,0,1,.86,1.38,4.79,4.79,0,0,1,0,3.39,4.48,4.48,0,0,1-.86,1.37,4,4,0,0,1-3,1.27Z"/><path class="cls-2" d="M156.24,139.81c0-.14,0-.28,0-.41v-8.81a.47.47,0,0,0-.14-.38.5.5,0,0,0-.37-.14h-1.67a.46.46,0,0,0-.34.13.53.53,0,0,0-.11.34v9.24a1.24,1.24,0,0,1-.1.47,1.46,1.46,0,0,1-.27.38,1.26,1.26,0,0,1-.87.36,1.7,1.7,0,0,1-.53-.07,1.9,1.9,0,0,1-.38-.17,1.28,1.28,0,0,1-.28-.21,1.46,1.46,0,0,0-.22-.17.33.33,0,0,0-.21-.07.51.51,0,0,0-.31.2l-.9,1a.61.61,0,0,0-.12.16.48.48,0,0,0,0,.2.33.33,0,0,0,.07.25,3.66,3.66,0,0,0,1.34,1,4,4,0,0,0,1.67.36,3.63,3.63,0,0,0,1.35-.25,3.76,3.76,0,0,0,1.13-.7,4.05,4.05,0,0,0,.83-1,3.87,3.87,0,0,0,.43-1.28A2.6,2.6,0,0,0,156.24,139.81Z"/><path class="cls-2" d="M167.92,132.5a.42.42,0,0,0,.33-.12.39.39,0,0,0,.11-.29v-1.56a.52.52,0,0,0-.1-.33.38.38,0,0,0-.32-.13h-8.59c-.26,0-.39.15-.39.43v12.42a.34.34,0,0,0,.12.29.4.4,0,0,0,.27.09h8.82a.34.34,0,0,0,.39-.38V141.3a.57.57,0,0,0-.08-.33c0-.07-.16-.1-.33-.1h-6.56v-3.25h4.89a.34.34,0,0,0,.29-.12.47.47,0,0,0,.09-.28V135.6a.39.39,0,0,0-.11-.31.34.34,0,0,0-.28-.08h-4.88V132.5Z"/><path class="cls-2" d="M179.69,140.28a.45.45,0,0,0-.26-.2.54.54,0,0,0-.33.1,4.43,4.43,0,0,1-2.58.85,4.15,4.15,0,0,1-1.67-.34,4.06,4.06,0,0,1-1.3-.93,4.13,4.13,0,0,1-.86-1.37,4.79,4.79,0,0,1,0-3.39,4.13,4.13,0,0,1,2.16-2.31,4,4,0,0,1,1.67-.35,4.15,4.15,0,0,1,1.37.23,4.35,4.35,0,0,1,1.19.62.45.45,0,0,0,.32.09.5.5,0,0,0,.27-.21l.87-1.47a.36.36,0,0,0,0-.33.56.56,0,0,0-.22-.24,6.83,6.83,0,0,0-1.79-.85,6.91,6.91,0,0,0-3.82-.06,7,7,0,0,0-1.63.69,7,7,0,0,0-1.38,1.06,7.2,7.2,0,0,0-1.06,1.39,6.55,6.55,0,0,0-.69,1.63,6.95,6.95,0,0,0,0,3.62,6.48,6.48,0,0,0,.69,1.62,7.07,7.07,0,0,0,1.06,1.37,7.5,7.5,0,0,0,1.38,1.07,6.92,6.92,0,0,0,1.63.68,6.7,6.7,0,0,0,1.81.24,6.88,6.88,0,0,0,2-.3,7.37,7.37,0,0,0,1.81-.87.6.6,0,0,0,.22-.23.32.32,0,0,0,0-.32Z"/><path class="cls-2" d="M191.42,130.07h-9.09a.47.47,0,0,0-.32.12.35.35,0,0,0-.13.28V132a.45.45,0,0,0,.13.35.47.47,0,0,0,.32.12h3.23v10.34a.35.35,0,0,0,0,.17.76.76,0,0,0,.11.14.72.72,0,0,0,.15.11.38.38,0,0,0,.13,0h1.78a.3.3,0,0,0,.16-.05.69.69,0,0,0,.13-.11.6.6,0,0,0,.09-.15.4.4,0,0,0,0-.15V132.5h3.24a.42.42,0,0,0,.34-.13.58.58,0,0,0,.11-.34v-1.56a.36.36,0,0,0-.16-.3A.53.53,0,0,0,191.42,130.07Z"/><path class="cls-2" d="M208.7,140.28a.45.45,0,0,0-.26-.2.54.54,0,0,0-.33.1,4.43,4.43,0,0,1-2.58.85,4.07,4.07,0,0,1-1.66-.34,4,4,0,0,1-1.31-.93,4.13,4.13,0,0,1-.86-1.37,4.79,4.79,0,0,1,0-3.39,4.08,4.08,0,0,1,.86-1.38,4,4,0,0,1,1.31-.93,3.92,3.92,0,0,1,1.66-.35,4.15,4.15,0,0,1,1.37.23,4.35,4.35,0,0,1,1.19.62.46.46,0,0,0,.33.09.52.52,0,0,0,.26-.21l.87-1.47a.36.36,0,0,0,0-.33.51.51,0,0,0-.22-.24,6.82,6.82,0,0,0-3.8-1.15,6.76,6.76,0,0,0-1.81.24,7.13,7.13,0,0,0-1.63.69,6.7,6.7,0,0,0-1.37,1.06,6.87,6.87,0,0,0-1.07,1.39,6.53,6.53,0,0,0-.68,1.63,6.68,6.68,0,0,0,0,3.62,6.46,6.46,0,0,0,.68,1.62,6.74,6.74,0,0,0,1.07,1.37,6.56,6.56,0,0,0,3,1.75,6.76,6.76,0,0,0,1.81.24,6.88,6.88,0,0,0,2-.3,7.37,7.37,0,0,0,1.81-.87.6.6,0,0,0,.22-.23.32.32,0,0,0,0-.32Z"/><path class="cls-2" d="M221.15,140.87h-6.56v-3.25h4.89a.34.34,0,0,0,.29-.12.47.47,0,0,0,.09-.28V135.6a.39.39,0,0,0-.11-.31.34.34,0,0,0-.28-.08h-4.88V132.5h6.33a.42.42,0,0,0,.33-.12.39.39,0,0,0,.11-.29v-1.56a.52.52,0,0,0-.1-.33.38.38,0,0,0-.32-.13h-8.59c-.26,0-.39.15-.39.43v12.42a.37.37,0,0,0,.11.29.45.45,0,0,0,.28.09h8.82a.34.34,0,0,0,.39-.38V141.3a.57.57,0,0,0-.08-.33C221.43,140.9,221.32,140.87,221.15,140.87Z"/><path class="cls-2" d="M234.43,130.07h-1.79a.49.49,0,0,0-.22.06.46.46,0,0,0-.18.22v8.25l-5.85-8.25a.45.45,0,0,0-.22-.21.87.87,0,0,0-.29-.07h-2.1a.36.36,0,0,0-.29.12.45.45,0,0,0-.1.28V142.9a.35.35,0,0,0,.39.4h1.8c.28,0,.41-.13.4-.4v-8.8l6.18,8.9a2.12,2.12,0,0,0,.2.21.23.23,0,0,0,.18.09h1.89c.3,0,.44-.13.44-.4V130.47a.34.34,0,0,0-.15-.29A.53.53,0,0,0,234.43,130.07Z"/><path class="cls-2" d="M246,130.07h-9.09a.43.43,0,0,0-.31.12.37.37,0,0,0-.14.28V132a.45.45,0,0,0,.14.35.43.43,0,0,0,.31.12h3.23v10.34a.35.35,0,0,0,0,.17.76.76,0,0,0,.11.14.72.72,0,0,0,.15.11.37.37,0,0,0,.14,0h1.78a.3.3,0,0,0,.15-.05.47.47,0,0,0,.13-.11.6.6,0,0,0,.09-.15.42.42,0,0,0,0-.15V132.5H246a.42.42,0,0,0,.34-.13.58.58,0,0,0,.11-.34v-1.56a.38.38,0,0,0-.15-.3A.57.57,0,0,0,246,130.07Z"/><path class="cls-2" d="M257.55,140.87H251v-3.25h4.9a.32.32,0,0,0,.28-.12.47.47,0,0,0,.09-.28V135.6a.39.39,0,0,0-.11-.31.33.33,0,0,0-.28-.08H251V132.5h6.33a.42.42,0,0,0,.33-.12.39.39,0,0,0,.11-.29v-1.56a.58.58,0,0,0-.09-.33.42.42,0,0,0-.33-.13h-8.59c-.26,0-.39.15-.39.43v12.42a.34.34,0,0,0,.12.29.42.42,0,0,0,.27.09h8.82a.34.34,0,0,0,.39-.38V141.3a.57.57,0,0,0-.08-.33C257.83,140.9,257.72,140.87,257.55,140.87Z"/><path class="cls-2" d="M270,142.93a.08.08,0,0,1,0,0l-2.27-4.77a4.05,4.05,0,0,0,.88-.66,4.27,4.27,0,0,0,.68-.87,4.1,4.1,0,0,0,.44-1,4.45,4.45,0,0,0,.16-1.16,4.34,4.34,0,0,0-.33-1.68,4.43,4.43,0,0,0-.91-1.37,4.06,4.06,0,0,0-1.37-.93,4.17,4.17,0,0,0-1.7-.35h-5.37c-.26,0-.39.15-.39.43v12.42a.34.34,0,0,0,.11.29.45.45,0,0,0,.28.09H262a.34.34,0,0,0,.39-.38v-4.24h2.74l2,4.34a.36.36,0,0,0,.34.28h2.13a.43.43,0,0,0,.31-.09A.35.35,0,0,0,270,143,.06.06,0,0,0,270,142.93Zm-2.78-7.83a2,2,0,0,1-.35.6,1.66,1.66,0,0,1-.56.41,1.92,1.92,0,0,1-.77.15h-3.11V132.5h3.05a1.73,1.73,0,0,1,.76.17,2.17,2.17,0,0,1,.59.44,1.88,1.88,0,0,1,.37.6,1.79,1.79,0,0,1,.14.67A2.18,2.18,0,0,1,267.21,135.1Z"/><path class="cls-2" d="M122.57,150.66h-1a.29.29,0,0,0-.19.06.33.33,0,0,0-.11.15c-.27.7-.5,1.3-.7,1.8l-.48,1.26c-.14.34-.24.62-.33.83l-.2.51c0,.13-.09.23-.11.3l-.08.2-.88-2.31,1-2.5a.15.15,0,0,0,0-.06v-.05a.19.19,0,0,0,0-.14s-.09-.05-.18-.05h-1a.25.25,0,0,0-.27.18l-1.77,4.93-1.84-4.88a.41.41,0,0,0-.12-.18.27.27,0,0,0-.18-.05h-1c-.15,0-.22.06-.22.18v.07s0,0,0,0l1.31,3.28c.45,1.1.89,2.2,1.32,3.29l0,.1a.24.24,0,0,0,.06.11.47.47,0,0,0,.1.1.24.24,0,0,0,.15,0h.71a.3.3,0,0,0,.23-.11.89.89,0,0,0,.14-.25l.89-2.25c.17.39.33.79.5,1.21s.33.81.48,1.2a.29.29,0,0,0,.08.14.33.33,0,0,0,.21.06h.73a.21.21,0,0,0,.12,0l.09-.06.05-.08a.14.14,0,0,0,0-.06c.31-.75.58-1.4.81-2s.44-1.07.62-1.5L122,153l.35-.85.27-.67.23-.57a.08.08,0,0,0,0,0v-.06a.2.2,0,0,0-.06-.14A.26.26,0,0,0,122.57,150.66Z"/><path class="cls-2" d="M128.8,152.1a2.3,2.3,0,0,0-.48-.74,2.43,2.43,0,0,0-.71-.51,2.12,2.12,0,0,0-.91-.19H124a.26.26,0,0,0-.2.07.32.32,0,0,0-.06.2v6.68a.27.27,0,0,0,.06.19.26.26,0,0,0,.2.07h.91a.23.23,0,0,0,.26-.26v-2.33h1.58a2.08,2.08,0,0,0,.9-.19,2.43,2.43,0,0,0,.71-.51A2.43,2.43,0,0,0,129,153,2.42,2.42,0,0,0,128.8,152.1Zm-1.36,1.27a1.15,1.15,0,0,1-.21.33.86.86,0,0,1-.33.23.9.9,0,0,1-.4.09h-1.35v-2.1h1.35a1,1,0,0,1,.41.09,1.08,1.08,0,0,1,.32.24,1,1,0,0,1,.21.33,1.07,1.07,0,0,1,.07.39A1.09,1.09,0,0,1,127.44,153.37Z"/><path class="cls-2" d="M131,157.87c.16,0,.24-.07.24-.22v-6.78a.19.19,0,0,0-.08-.16.27.27,0,0,0-.16-.05h-1a.19.19,0,0,0-.21.21v6.78c0,.15.07.22.21.22Z"/><path class="cls-2" d="M141.22,154.7h-.88a.21.21,0,0,0-.16.06.2.2,0,0,0-.05.15v1.61l-.47.08-.45,0a2.12,2.12,0,0,1-.91-.19,2.22,2.22,0,0,1-1.18-1.25,2.55,2.55,0,0,1-.17-.92,2.6,2.6,0,0,1,.17-.93,2.22,2.22,0,0,1,.47-.75A2.26,2.26,0,0,1,140,152a2.61,2.61,0,0,1,.66.35.24.24,0,0,0,.17,0,.24.24,0,0,0,.15-.11l.47-.8a.17.17,0,0,0,0-.18.22.22,0,0,0-.12-.13,4,4,0,0,0-1-.47,3.85,3.85,0,0,0-2.09,0,3.91,3.91,0,0,0-.89.38,3.77,3.77,0,0,0-.75.58,3.94,3.94,0,0,0-.58.75,4.08,4.08,0,0,0-.37.89,3.83,3.83,0,0,0,0,2,3.81,3.81,0,0,0,.37.88,4.69,4.69,0,0,0,.58.75,4.18,4.18,0,0,0,.75.58,3.49,3.49,0,0,0,.89.37,3.64,3.64,0,0,0,1,.13,4.12,4.12,0,0,0,1.11-.14,3.49,3.49,0,0,0,1-.45.23.23,0,0,0,.14-.22v-2.25a.17.17,0,0,0-.08-.16A.33.33,0,0,0,141.22,154.7Z"/><path class="cls-2" d="M147.4,157.65v-.88a.24.24,0,0,0-.06-.17.2.2,0,0,0-.15-.06h-2.84v-5.68a.2.2,0,0,0-.22-.21h-1a.23.23,0,0,0-.16.06.2.2,0,0,0-.06.15v6.79c0,.15.07.22.21.22h4.06A.2.2,0,0,0,147.4,157.65Z"/><path class="cls-2" d="M154.84,152.39a3.27,3.27,0,0,0-.58-.75,3.77,3.77,0,0,0-.75-.58,3.91,3.91,0,0,0-.89-.38,3.64,3.64,0,0,0-1-.13,3.51,3.51,0,0,0-1,.13,3.73,3.73,0,0,0-.89.38,3.74,3.74,0,0,0-1.33,1.33,4.11,4.11,0,0,0-.38.89,3.83,3.83,0,0,0,0,2,3.84,3.84,0,0,0,.38.88,3.77,3.77,0,0,0,.58.75,3.58,3.58,0,0,0,.75.58,3.34,3.34,0,0,0,.89.37,3.51,3.51,0,0,0,1,.13,3.64,3.64,0,0,0,1-.13,3.49,3.49,0,0,0,.89-.37,4.18,4.18,0,0,0,.75-.58,3.77,3.77,0,0,0,.58-.75,3.84,3.84,0,0,0,.38-.88,3.83,3.83,0,0,0,0-2A4.11,4.11,0,0,0,154.84,152.39Zm-1.12,2.8a2.39,2.39,0,0,1-.47.75,2.16,2.16,0,0,1-.72.5,2.12,2.12,0,0,1-.91.19,2,2,0,0,1-.9-.19,2.16,2.16,0,0,1-.72-.5,2.22,2.22,0,0,1-.47-.75,2.54,2.54,0,0,1-.16-.92,2.6,2.6,0,0,1,.16-.93,2.22,2.22,0,0,1,.47-.75,2.22,2.22,0,0,1,1.62-.7,2.28,2.28,0,0,1,.91.19,2.19,2.19,0,0,1,.72.51,2.39,2.39,0,0,1,.47.75,2.6,2.6,0,0,1,.17.93A2.55,2.55,0,0,1,153.72,155.19Z"/><path class="cls-2" d="M161.87,154.75a2.9,2.9,0,0,0-.27-.41,2.79,2.79,0,0,0-.35-.34,1.84,1.84,0,0,0,.37-.6,2,2,0,0,0,.14-.73,2.11,2.11,0,0,0-.16-.8,2,2,0,0,0-.44-.63,1.94,1.94,0,0,0-.65-.43,2.06,2.06,0,0,0-.79-.15h-2.88a.26.26,0,0,0-.2.07.27.27,0,0,0-.07.2v6.68a.24.24,0,0,0,.07.19.27.27,0,0,0,.2.07H160a1.88,1.88,0,0,0,.81-.18,1.94,1.94,0,0,0,.66-.47,2.12,2.12,0,0,0,.61-1.5,2.07,2.07,0,0,0-.06-.5A2.68,2.68,0,0,0,161.87,154.75ZM158,151.91h1.45a.91.91,0,0,1,.62.21.72.72,0,0,1,.24.57.84.84,0,0,1-.07.35.83.83,0,0,1-.17.27.77.77,0,0,1-.28.19.84.84,0,0,1-.35.07H158Zm2.56,4.13a.81.81,0,0,1-.19.29.84.84,0,0,1-.29.2.82.82,0,0,1-.35.08H158v-1.89h1.73a.73.73,0,0,1,.36.08.85.85,0,0,1,.28.22.89.89,0,0,1,.19.31.84.84,0,0,1,.07.35A.86.86,0,0,1,160.57,156Z"/><path class="cls-2" d="M166.48,150.7a.29.29,0,0,0-.17,0h-.56a.32.32,0,0,0-.19,0,.27.27,0,0,0-.09.12c-.94,2.28-1.66,4-2.14,5.14s-.73,1.72-.73,1.73a.17.17,0,0,0,.05.13.22.22,0,0,0,.16.05h1c.1,0,.15-.05.18-.15l.49-1.13h3.07l.49,1.13a.2.2,0,0,0,.07.12.26.26,0,0,0,.14,0h.93a.29.29,0,0,0,.22-.06.24.24,0,0,0,.05-.14v0l-2.89-6.82A.27.27,0,0,0,166.48,150.7ZM165,155.26l1-2.51,1,2.51Z"/><path class="cls-2" d="M174.38,156.54h-2.84v-5.68a.2.2,0,0,0-.22-.21h-1a.21.21,0,0,0-.16.06.2.2,0,0,0-.06.15v6.79c0,.15.07.22.21.22h4.06a.2.2,0,0,0,.21-.22v-.88a.24.24,0,0,0-.06-.17A.2.2,0,0,0,174.38,156.54Z"/><circle class="cls-2" cx="193.73" cy="112.76" r="1.66"/><path class="cls-2" d="M208.82,93.5a1.09,1.09,0,1,0,1.09,1.08A1.08,1.08,0,0,0,208.82,93.5Z"/><circle class="cls-2" cx="211.9" cy="112.76" r="1.34"/><path class="cls-2" d="M183.05,121.82a1.5,1.5,0,1,0-1.5,1.5A1.5,1.5,0,0,0,183.05,121.82Z"/><circle class="cls-2" cx="220.99" cy="103.67" r="1.21"/><circle class="cls-2" cx="57.4" cy="112.76" r="1.09"/><path class="cls-2" d="M208.82,120.74a1.09,1.09,0,1,0,1.09,1.08A1.08,1.08,0,0,0,208.82,120.74Z"/><path class="cls-2" d="M190.64,120.48a1.35,1.35,0,1,0,1.34,1.34A1.34,1.34,0,0,0,190.64,120.48Z"/><circle class="cls-2" cx="193.73" cy="103.67" r="1.66"/><path class="cls-2" d="M199.73,123a1.21,1.21,0,1,0-1.21-1.21A1.21,1.21,0,0,0,199.73,123Z"/><path class="cls-2" d="M190.64,93.24A1.34,1.34,0,1,0,192,94.58,1.34,1.34,0,0,0,190.64,93.24Z"/><circle class="cls-2" cx="220.99" cy="112.76" r="1.21"/><circle class="cls-2" cx="139.2" cy="67.31" r="1.84"/><path class="cls-2" d="M139.2,78.44a2,2,0,1,0-2-2A2,2,0,0,0,139.2,78.44Z"/><circle class="cls-2" cx="139.2" cy="40.04" r="1.34"/><path class="cls-2" d="M139.2,87.76a2.28,2.28,0,1,0-2.28-2.27A2.27,2.27,0,0,0,139.2,87.76Z"/><circle class="cls-2" cx="139.2" cy="58.22" r="1.66"/><circle class="cls-2" cx="157.35" cy="88.07" r="1.84"/><path class="cls-2" d="M130.11,62.14a1.34,1.34,0,1,0-1.34-1.34A1.34,1.34,0,0,0,130.11,62.14Z"/><path class="cls-2" d="M130.11,71.38a1.49,1.49,0,1,0-1.49-1.49A1.49,1.49,0,0,0,130.11,71.38Z"/><circle class="cls-2" cx="130.11" cy="51.71" r="1.21"/><path class="cls-2" d="M130.11,43.71A1.09,1.09,0,1,0,129,42.62,1.08,1.08,0,0,0,130.11,43.71Z"/><circle class="cls-2" cx="139.2" cy="21.87" r="1.09"/><path class="cls-2" d="M148.28,50.62a1.49,1.49,0,1,0-1.49-1.49A1.49,1.49,0,0,0,148.28,50.62Z"/><path class="cls-2" d="M148.28,41.39A1.35,1.35,0,1,0,146.94,40,1.35,1.35,0,0,0,148.28,41.39Z"/><path class="cls-2" d="M148.28,59.88a1.66,1.66,0,1,0-1.65-1.66A1.66,1.66,0,0,0,148.28,59.88Z"/><circle class="cls-2" cx="139.2" cy="30.96" r="1.21"/><path class="cls-2" d="M148.28,32.16a1.21,1.21,0,1,0-1.2-1.2A1.21,1.21,0,0,0,148.28,32.16Z"/><path class="cls-2" d="M148.28,23a1.09,1.09,0,1,0-1.08-1.08A1.08,1.08,0,0,0,148.28,23Z"/><path class="cls-2" d="M148.28,87.76A2.28,2.28,0,1,0,146,85.49,2.28,2.28,0,0,0,148.28,87.76Z"/><path class="cls-2" d="M130.11,80.63A1.66,1.66,0,1,0,128.45,79,1.65,1.65,0,0,0,130.11,80.63Z"/><path class="cls-2" d="M148.28,78.44a2,2,0,1,0-2-2A2,2,0,0,0,148.28,78.44Z"/><path class="cls-2" d="M148.28,69.15a1.84,1.84,0,1,0-1.84-1.84A1.84,1.84,0,0,0,148.28,69.15Z"/><path class="cls-2" d="M139.2,50.62a1.49,1.49,0,1,0-1.49-1.49A1.49,1.49,0,0,0,139.2,50.62Z"/><circle class="cls-2" cx="87.25" cy="121.85" r="1.21"/><circle class="cls-2" cx="84.67" cy="103.67" r="1.49"/><circle class="cls-2" cx="93.75" cy="103.67" r="1.66"/><circle class="cls-2" cx="75.58" cy="103.67" r="1.34"/><circle class="cls-2" cx="87.75" cy="94.61" r="1.21"/><circle class="cls-2" cx="75.58" cy="112.76" r="1.34"/><circle class="cls-2" cx="57.4" cy="103.67" r="1.09"/><circle class="cls-2" cx="66.49" cy="112.76" r="1.21"/><circle class="cls-2" cx="66.49" cy="103.67" r="1.21"/><path class="cls-2" d="M96.84,96a1.34,1.34,0,1,0-1.34-1.34A1.34,1.34,0,0,0,96.84,96Z"/><circle class="cls-2" cx="143.74" cy="108.22" r="15.86" transform="translate(-11.24 199.6) rotate(-67.5)"/><path class="cls-2" d="M121,105.94a2.27,2.27,0,1,0-2.27-2.27A2.27,2.27,0,0,0,121,105.94Z"/><path class="cls-2" d="M121,115a2.27,2.27,0,1,0-2.27-2.27A2.27,2.27,0,0,0,121,115Z"/><circle class="cls-2" cx="102.84" cy="112.76" r="1.84"/><circle class="cls-2" cx="130.11" cy="88.07" r="1.84"/><path class="cls-2" d="M124.1,96.45a1.84,1.84,0,1,0-1.84-1.84A1.84,1.84,0,0,0,124.1,96.45Z"/><circle class="cls-2" cx="102.84" cy="103.67" r="1.84"/><path class="cls-2" d="M115,96.26a1.66,1.66,0,1,0-1.66-1.65A1.65,1.65,0,0,0,115,96.26Z"/><path class="cls-2" d="M111.93,105.72a2,2,0,1,0-2-2A2.05,2.05,0,0,0,111.93,105.72Z"/><path class="cls-2" d="M112.85,121.85a1.66,1.66,0,1,0,1.66-1.66A1.67,1.67,0,0,0,112.85,121.85Z"/><circle class="cls-2" cx="202.82" cy="112.76" r="1.49"/><path class="cls-2" d="M97.68,121.85a1.35,1.35,0,1,0-1.35,1.34A1.35,1.35,0,0,0,97.68,121.85Z"/><path class="cls-2" d="M105.42,120.36a1.49,1.49,0,1,0,1.49,1.49A1.49,1.49,0,0,0,105.42,120.36Z"/><path class="cls-2" d="M157.35,80.63A1.66,1.66,0,1,0,155.69,79,1.66,1.66,0,0,0,157.35,80.63Z"/><circle class="cls-2" cx="123.6" cy="121.85" r="1.84"/><path class="cls-2" d="M114,112.76a2,2,0,1,0-2,2A2,2,0,0,0,114,112.76Z"/><path class="cls-2" d="M105.93,93.12a1.49,1.49,0,1,0,1.49,1.49A1.48,1.48,0,0,0,105.93,93.12Z"/><circle class="cls-2" cx="230.08" cy="103.67" r="1.09"/><circle class="cls-2" cx="78.66" cy="94.61" r="1.09"/><circle class="cls-2" cx="230.08" cy="112.76" r="1.09"/><circle class="cls-2" cx="93.75" cy="112.76" r="1.66"/><circle class="cls-2" cx="84.67" cy="112.76" r="1.49"/><path class="cls-2" d="M148.29,175a1.34,1.34,0,1,0,1.34,1.34A1.34,1.34,0,0,0,148.29,175Z"/><path class="cls-2" d="M148.29,193.46a1.09,1.09,0,1,0,1.08,1.09A1.09,1.09,0,0,0,148.29,193.46Z"/><circle class="cls-2" cx="148.29" cy="185.46" r="1.21"/><circle class="cls-2" cx="157.37" cy="173.79" r="1.09"/><path class="cls-2" d="M148.29,165.79a1.49,1.49,0,1,0,1.49,1.49A1.49,1.49,0,0,0,148.29,165.79Z"/><path class="cls-2" d="M139.2,175a1.34,1.34,0,1,0,1.34,1.34A1.34,1.34,0,0,0,139.2,175Z"/><path class="cls-2" d="M139.2,165.79a1.49,1.49,0,1,0,1.49,1.49A1.49,1.49,0,0,0,139.2,165.79Z"/><circle class="cls-2" cx="139.2" cy="185.46" r="1.21"/><path class="cls-2" d="M139.2,193.46a1.09,1.09,0,1,0,1.08,1.09A1.09,1.09,0,0,0,139.2,193.46Z"/><circle class="cls-2" cx="130.13" cy="164.7" r="1.21"/><circle class="cls-2" cx="130.13" cy="173.79" r="1.09"/><path class="cls-2" d="M166.46,110.49a2.27,2.27,0,1,0,2.27,2.27A2.27,2.27,0,0,0,166.46,110.49Z"/><path class="cls-2" d="M163.38,96.42a1.84,1.84,0,1,0-1.84-1.84A1.84,1.84,0,0,0,163.38,96.42Z"/><path class="cls-2" d="M164.19,103.67a2.27,2.27,0,1,0,2.27-2.27A2.27,2.27,0,0,0,164.19,103.67Z"/><circle class="cls-2" cx="78.16" cy="121.85" r="1.09"/><path class="cls-2" d="M163.38,123.66a1.84,1.84,0,1,0-1.84-1.84A1.84,1.84,0,0,0,163.38,123.66Z"/><path class="cls-2" d="M157.35,71.38a1.49,1.49,0,1,0-1.49-1.49A1.49,1.49,0,0,0,157.35,71.38Z"/><path class="cls-2" d="M157.35,62.14A1.34,1.34,0,1,0,156,60.8,1.34,1.34,0,0,0,157.35,62.14Z"/><path class="cls-2" d="M172.47,123.48a1.66,1.66,0,1,0-1.66-1.66A1.65,1.65,0,0,0,172.47,123.48Z"/><path class="cls-2" d="M157.35,52.92a1.21,1.21,0,1,0-1.21-1.21A1.21,1.21,0,0,0,157.35,52.92Z"/><path class="cls-2" d="M157.35,43.71a1.09,1.09,0,1,0-1.09-1.09A1.09,1.09,0,0,0,157.35,43.71Z"/><circle class="cls-2" cx="184.64" cy="112.76" r="1.84"/><path class="cls-2" d="M172.47,96.24a1.66,1.66,0,1,0-1.66-1.66A1.65,1.65,0,0,0,172.47,96.24Z"/><path class="cls-2" d="M199.73,95.79a1.21,1.21,0,1,0-1.21-1.21A1.21,1.21,0,0,0,199.73,95.79Z"/><circle class="cls-2" cx="202.82" cy="103.67" r="1.49"/><circle class="cls-2" cx="184.64" cy="103.67" r="1.84"/><circle class="cls-2" cx="157.37" cy="164.7" r="1.21"/><circle class="cls-2" cx="211.9" cy="103.67" r="1.34"/><path class="cls-2" d="M175.55,110.72a2,2,0,1,0,2,2A2,2,0,0,0,175.55,110.72Z"/><path class="cls-2" d="M173.51,103.67a2,2,0,1,0,2-2A2,2,0,0,0,173.51,103.67Z"/><path class="cls-2" d="M181.55,96.07a1.49,1.49,0,1,0-1.49-1.49A1.49,1.49,0,0,0,181.55,96.07Z"/></svg>