<svg id="Livello_1" data-name="Livello 1" xmlns="http://www.w3.org/2000/svg" xmlns:xlink="http://www.w3.org/1999/xlink" viewBox="0 0 287.94 216.47"><defs><style>.cls-1{fill:url(#Sfumatura_senza_nome_2);}.cls-2{fill:url(#Sfumatura_senza_nome_2-2);}.cls-3{fill:url(#Sfumatura_senza_nome_2-3);}.cls-4{fill:url(#Sfumatura_senza_nome_2-4);}.cls-5{fill:url(#Sfumatura_senza_nome_2-5);}.cls-6{fill:url(#Sfumatura_senza_nome_2-6);}.cls-7{fill:url(#Sfumatura_senza_nome_2-7);}.cls-8{fill:url(#Sfumatura_senza_nome_2-8);}.cls-9{fill:url(#Sfumatura_senza_nome_2-9);}.cls-10{fill:url(#Sfumatura_senza_nome_2-10);}.cls-11{fill:url(#Sfumatura_senza_nome_2-11);}.cls-12{fill:url(#Sfumatura_senza_nome_2-12);}.cls-13{fill:url(#Sfumatura_senza_nome_2-13);}.cls-14{fill:url(#Sfumatura_senza_nome_2-14);}.cls-15{fill:url(#Sfumatura_senza_nome_2-15);}.cls-16{fill:url(#Sfumatura_senza_nome_2-16);}.cls-17{fill:url(#Sfumatura_senza_nome_2-17);}.cls-18{fill:url(#Sfumatura_senza_nome_2-18);}.cls-19{fill:url(#Sfumatura_senza_nome_2-19);}.cls-20{fill:url(#Sfumatura_senza_nome_2-20);}.cls-21{fill:url(#Sfumatura_senza_nome_2-21);}.cls-22{fill:url(#Sfumatura_senza_nome_2-22);}.cls-23{fill:url(#Sfumatura_senza_nome_2-23);}.cls-24{fill:url(#Sfumatura_senza_nome_2-24);}.cls-25{fill:url(#Sfumatura_senza_nome_2-25);}.cls-26{fill:url(#Sfumatura_senza_nome_2-26);}.cls-27{fill:url(#Sfumatura_senza_nome_2-27);}.cls-28{fill:url(#Sfumatura_senza_nome_2-28);}.cls-29{fill:url(#Sfumatura_senza_nome_2-29);}.cls-30{fill:url(#Sfumatura_senza_nome_2-30);}.cls-31{fill:url(#Sfumatura_senza_nome_2-31);}.cls-32{fill:url(#Sfumatura_senza_nome_2-32);}.cls-33{fill:url(#Sfumatura_senza_nome_2-33);}.cls-34{fill:url(#Sfumatura_senza_nome_2-34);}.cls-35{fill:url(#Sfumatura_senza_nome_2-35);}.cls-36{fill:url(#Sfumatura_senza_nome_2-36);}.cls-37{fill:url(#Sfumatura_senza_nome_2-37);}.cls-38{fill:url(#Sfumatura_senza_nome_2-38);}.cls-39{fill:url(#Sfumatura_senza_nome_2-39);}.cls-40{fill:url(#Sfumatura_senza_nome_2-40);}.cls-41{fill:url(#Sfumatura_senza_nome_2-41);}.cls-42{fill:url(#Sfumatura_senza_nome_2-42);}.cls-43{fill:url(#Sfumatura_senza_nome_2-43);}.cls-44{fill:url(#Sfumatura_senza_nome_2-44);}.cls-45{fill:url(#Sfumatura_senza_nome_2-45);}.cls-46{fill:url(#Sfumatura_senza_nome_2-46);}.cls-47{fill:url(#Sfumatura_senza_nome_2-47);}.cls-48{fill:url(#Sfumatura_senza_nome_2-48);}.cls-49{fill:url(#Sfumatura_senza_nome_2-49);}.cls-50{fill:url(#Sfumatura_senza_nome_2-50);}.cls-51{fill:url(#Sfumatura_senza_nome_2-51);}.cls-52{fill:url(#Sfumatura_senza_nome_2-52);}.cls-53{fill:url(#Sfumatura_senza_nome_2-53);}.cls-54{fill:url(#Sfumatura_senza_nome_2-54);}.cls-55{fill:url(#Sfumatura_senza_nome_2-55);}.cls-56{fill:url(#Sfumatura_senza_nome_2-56);}.cls-57{fill:url(#Sfumatura_senza_nome_2-57);}.cls-58{fill:url(#Sfumatura_senza_nome_2-58);}.cls-59{fill:url(#Sfumatura_senza_nome_2-59);}.cls-60{fill:url(#Sfumatura_senza_nome_2-60);}.cls-61{fill:url(#Sfumatura_senza_nome_2-61);}.cls-62{fill:url(#Sfumatura_senza_nome_2-62);}.cls-63{fill:url(#Sfumatura_senza_nome_2-63);}.cls-64{fill:url(#Sfumatura_senza_nome_2-64);}.cls-65{fill:url(#Sfumatura_senza_nome_2-65);}.cls-66{fill:url(#Sfumatura_senza_nome_2-66);}.cls-67{fill:url(#Sfumatura_senza_nome_2-67);}.cls-68{fill:url(#Sfumatura_senza_nome_2-68);}.cls-69{fill:url(#Sfumatura_senza_nome_2-69);}.cls-70{fill:url(#Sfumatura_senza_nome_2-70);}.cls-71{fill:url(#Sfumatura_senza_nome_2-71);}.cls-72{fill:url(#Sfumatura_senza_nome_2-72);}.cls-73{fill:url(#Sfumatura_senza_nome_2-73);}.cls-74{fill:url(#Sfumatura_senza_nome_2-74);}.cls-75{fill:url(#Sfumatura_senza_nome_2-75);}.cls-76{fill:url(#Sfumatura_senza_nome_2-76);}.cls-77{fill:url(#Sfumatura_senza_nome_2-77);}.cls-78{fill:url(#Sfumatura_senza_nome_2-78);}.cls-79{fill:url(#Sfumatura_senza_nome_2-79);}.cls-80{fill:url(#Sfumatura_senza_nome_2-80);}.cls-81{fill:url(#Sfumatura_senza_nome_2-81);}.cls-82{fill:url(#Sfumatura_senza_nome_2-82);}.cls-83{fill:url(#Sfumatura_senza_nome_2-83);}.cls-84{fill:url(#Sfumatura_senza_nome_2-84);}.cls-85{fill:url(#Sfumatura_senza_nome_2-85);}.cls-86{fill:url(#Sfumatura_senza_nome_2-86);}.cls-87{fill:url(#Sfumatura_senza_nome_2-87);}.cls-88{fill:url(#Sfumatura_senza_nome_2-88);}.cls-89{fill:url(#Sfumatura_senza_nome_2-89);}.cls-90{fill:url(#Sfumatura_senza_nome_2-90);}.cls-91{fill:url(#Sfumatura_senza_nome_2-91);}.cls-92{fill:url(#Sfumatura_senza_nome_2-92);}.cls-93{fill:url(#Sfumatura_senza_nome_2-93);}.cls-94{fill:url(#Sfumatura_senza_nome_2-94);}.cls-95{fill:url(#Sfumatura_senza_nome_2-95);}.cls-96{fill:url(#Sfumatura_senza_nome_2-96);}.cls-97{fill:url(#Sfumatura_senza_nome_2-97);}.cls-98{fill:url(#Sfumatura_senza_nome_2-98);}.cls-99{fill:url(#Sfumatura_senza_nome_2-99);}.cls-100{fill:url(#Sfumatura_senza_nome_2-100);}.cls-101{fill:url(#Sfumatura_senza_nome_2-101);}.cls-102{fill:url(#Sfumatura_senza_nome_2-102);}.cls-103{fill:url(#Sfumatura_senza_nome_2-103);}.cls-104{fill:url(#Sfumatura_senza_nome_2-104);}.cls-105{fill:url(#Sfumatura_senza_nome_2-105);}.cls-106{fill:url(#Sfumatura_senza_nome_2-106);}.cls-107{fill:url(#Sfumatura_senza_nome_2-107);}.cls-108{fill:url(#Sfumatura_senza_nome_2-108);}.cls-109{fill:url(#Sfumatura_senza_nome_2-109);}.cls-110{fill:url(#Sfumatura_senza_nome_2-110);}.cls-111{fill:url(#Sfumatura_senza_nome_2-111);}.cls-112{fill:url(#Sfumatura_senza_nome_2-112);}.cls-113{fill:url(#Sfumatura_senza_nome_2-113);}.cls-114{fill:url(#Sfumatura_senza_nome_2-114);}.cls-115{fill:url(#Sfumatura_senza_nome_2-115);}.cls-116{fill:url(#Sfumatura_senza_nome_2-116);}.cls-117{fill:url(#Sfumatura_senza_nome_2-117);}.cls-118{fill:url(#Sfumatura_senza_nome_2-118);}.cls-119{fill:url(#Sfumatura_senza_nome_2-119);}.cls-120{fill:url(#Sfumatura_senza_nome_2-120);}.cls-121{fill:url(#Sfumatura_senza_nome_2-121);}.cls-122{fill:url(#Sfumatura_senza_nome_2-122);}.cls-123{fill:url(#Sfumatura_senza_nome_2-123);}.cls-124{fill:url(#Sfumatura_senza_nome_2-124);}.cls-125{fill:url(#Sfumatura_senza_nome_2-125);}.cls-126{fill:url(#Sfumatura_senza_nome_2-126);}</style><linearGradient id="Sfumatura_senza_nome_2" x1="-346.91" y1="-76.77" x2="208.79" y2="244.07" gradientUnits="userSpaceOnUse"><stop offset="0" stop-color="#a32400"/><stop offset="0.18" stop-color="#a72900"/><stop offset="0.37" stop-color="#b23602"/><stop offset="0.57" stop-color="#c44c04"/><stop offset="0.78" stop-color="#dd6b06"/><stop offset="0.99" stop-color="#fd920a"/><stop offset="1" stop-color="#ff940a"/></linearGradient><linearGradient id="Sfumatura_senza_nome_2-2" x1="-346.52" y1="-82.03" x2="228.8" y2="250.14" xlink:href="#Sfumatura_senza_nome_2"/><linearGradient id="Sfumatura_senza_nome_2-3" x1="-443.71" y1="-147.3" x2="295.44" y2="279.44" xlink:href="#Sfumatura_senza_nome_2"/><linearGradient id="Sfumatura_senza_nome_2-4" x1="-294.95" y1="-69.6" x2="237.86" y2="238.02" xlink:href="#Sfumatura_senza_nome_2"/><linearGradient id="Sfumatura_senza_nome_2-5" x1="-310.54" y1="-82.03" x2="264.78" y2="250.14" xlink:href="#Sfumatura_senza_nome_2"/><linearGradient id="Sfumatura_senza_nome_2-6" x1="-234.08" y1="-49.65" x2="248.59" y2="229.02" xlink:href="#Sfumatura_senza_nome_2"/><linearGradient id="Sfumatura_senza_nome_2-7" x1="-343.17" y1="-119.11" x2="322.73" y2="265.34" xlink:href="#Sfumatura_senza_nome_2"/><linearGradient id="Sfumatura_senza_nome_2-8" x1="-213.36" y1="-53.26" x2="280.26" y2="231.73" xlink:href="#Sfumatura_senza_nome_2"/><linearGradient id="Sfumatura_senza_nome_2-9" x1="-331.26" y1="-127.89" x2="359.06" y2="270.66" xlink:href="#Sfumatura_senza_nome_2"/><linearGradient id="Sfumatura_senza_nome_2-10" x1="-269.84" y1="-100.8" x2="348.31" y2="256.09" xlink:href="#Sfumatura_senza_nome_2"/><linearGradient id="Sfumatura_senza_nome_2-11" x1="-70.47" y1="7.57" x2="266.71" y2="202.24" xlink:href="#Sfumatura_senza_nome_2"/><linearGradient id="Sfumatura_senza_nome_2-12" x1="-279.71" y1="-119.11" x2="386.18" y2="265.34" xlink:href="#Sfumatura_senza_nome_2"/><linearGradient id="Sfumatura_senza_nome_2-13" x1="-217.37" y1="-90.56" x2="373.76" y2="250.73" xlink:href="#Sfumatura_senza_nome_2"/><linearGradient id="Sfumatura_senza_nome_2-14" x1="-168.88" y1="-69.6" x2="363.93" y2="238.02" xlink:href="#Sfumatura_senza_nome_2"/><linearGradient id="Sfumatura_senza_nome_2-15" x1="-188.36" y1="-90.56" x2="402.77" y2="250.73" xlink:href="#Sfumatura_senza_nome_2"/><linearGradient id="Sfumatura_senza_nome_2-16" x1="-226.71" y1="-119.11" x2="439.18" y2="265.34" xlink:href="#Sfumatura_senza_nome_2"/><linearGradient id="Sfumatura_senza_nome_2-17" x1="-263.11" y1="-147.3" x2="476.04" y2="279.44" xlink:href="#Sfumatura_senza_nome_2"/><linearGradient id="Sfumatura_senza_nome_2-18" x1="-114.35" y1="-69.6" x2="418.47" y2="238.02" xlink:href="#Sfumatura_senza_nome_2"/><linearGradient id="Sfumatura_senza_nome_2-19" x1="-190.31" y1="-119.11" x2="475.59" y2="265.34" xlink:href="#Sfumatura_senza_nome_2"/><linearGradient id="Sfumatura_senza_nome_2-20" x1="-195.18" y1="-127.89" x2="495.14" y2="270.66" xlink:href="#Sfumatura_senza_nome_2"/><linearGradient id="Sfumatura_senza_nome_2-21" x1="-176.46" y1="-16.26" x2="264.38" y2="238.26" xlink:href="#Sfumatura_senza_nome_2"/><linearGradient id="Sfumatura_senza_nome_2-22" x1="-54.03" y1="50.74" x2="215.21" y2="206.19" xlink:href="#Sfumatura_senza_nome_2"/><linearGradient id="Sfumatura_senza_nome_2-23" x1="-11.59" y1="72.39" x2="201.83" y2="195.62" xlink:href="#Sfumatura_senza_nome_2"/><linearGradient id="Sfumatura_senza_nome_2-24" x1="-76.33" y1="30" x2="247.15" y2="216.76" xlink:href="#Sfumatura_senza_nome_2"/><linearGradient id="Sfumatura_senza_nome_2-25" x1="-77.21" y1="26.94" x2="256.14" y2="219.39" xlink:href="#Sfumatura_senza_nome_2"/><linearGradient id="Sfumatura_senza_nome_2-26" x1="-72.9" y1="24.81" x2="264.27" y2="219.47" xlink:href="#Sfumatura_senza_nome_2"/><linearGradient id="Sfumatura_senza_nome_2-27" x1="-68.68" y1="23.27" x2="272.96" y2="220.52" xlink:href="#Sfumatura_senza_nome_2"/><linearGradient id="Sfumatura_senza_nome_2-28" x1="-42.24" y1="35.05" x2="271.57" y2="216.23" xlink:href="#Sfumatura_senza_nome_2"/><linearGradient id="Sfumatura_senza_nome_2-29" x1="-50.02" y1="26.94" x2="283.33" y2="219.39" xlink:href="#Sfumatura_senza_nome_2"/><linearGradient id="Sfumatura_senza_nome_2-30" x1="93.59" y1="55.13" x2="243.96" y2="141.94" xlink:href="#Sfumatura_senza_nome_2"/><linearGradient id="Sfumatura_senza_nome_2-31" x1="143.12" y1="56.83" x2="241.78" y2="113.79" xlink:href="#Sfumatura_senza_nome_2"/><linearGradient id="Sfumatura_senza_nome_2-32" x1="130.79" y1="66.11" x2="252.59" y2="136.43" xlink:href="#Sfumatura_senza_nome_2"/><linearGradient id="Sfumatura_senza_nome_2-33" x1="91.43" y1="69.97" x2="226.76" y2="148.11" xlink:href="#Sfumatura_senza_nome_2"/><linearGradient id="Sfumatura_senza_nome_2-34" x1="147.99" y1="61.71" x2="257.61" y2="124.99" xlink:href="#Sfumatura_senza_nome_2"/><linearGradient id="Sfumatura_senza_nome_2-35" x1="-8.3" y1="75.01" x2="90.36" y2="131.97" xlink:href="#Sfumatura_senza_nome_2"/><linearGradient id="Sfumatura_senza_nome_2-36" x1="143.12" y1="84.07" x2="241.78" y2="141.03" xlink:href="#Sfumatura_senza_nome_2"/><linearGradient id="Sfumatura_senza_nome_2-37" x1="109.53" y1="75.18" x2="231.33" y2="145.5" xlink:href="#Sfumatura_senza_nome_2"/><linearGradient id="Sfumatura_senza_nome_2-38" x1="93.59" y1="46.04" x2="243.96" y2="132.85" xlink:href="#Sfumatura_senza_nome_2"/><linearGradient id="Sfumatura_senza_nome_2-39" x1="126.73" y1="79.86" x2="236.35" y2="143.15" xlink:href="#Sfumatura_senza_nome_2"/><linearGradient id="Sfumatura_senza_nome_2-40" x1="109.53" y1="47.93" x2="231.33" y2="118.25" xlink:href="#Sfumatura_senza_nome_2"/><linearGradient id="Sfumatura_senza_nome_2-41" x1="147.99" y1="70.8" x2="257.61" y2="134.08" xlink:href="#Sfumatura_senza_nome_2"/><linearGradient id="Sfumatura_senza_nome_2-42" x1="27.94" y1="3.25" x2="195.01" y2="99.71" xlink:href="#Sfumatura_senza_nome_2"/><linearGradient id="Sfumatura_senza_nome_2-43" x1="15.57" y1="5.2" x2="201.21" y2="112.38" xlink:href="#Sfumatura_senza_nome_2"/><linearGradient id="Sfumatura_senza_nome_2-44" x1="58.09" y1="-6.6" x2="179.88" y2="63.71" xlink:href="#Sfumatura_senza_nome_2"/><linearGradient id="Sfumatura_senza_nome_2-45" x1="1.84" y1="6.36" x2="208.1" y2="125.45" xlink:href="#Sfumatura_senza_nome_2"/><linearGradient id="Sfumatura_senza_nome_2-46" x1="39.06" y1="0.59" x2="189.43" y2="87.4" xlink:href="#Sfumatura_senza_nome_2"/><linearGradient id="Sfumatura_senza_nome_2-47" x1="46.09" y1="24.01" x2="213.16" y2="120.47" xlink:href="#Sfumatura_senza_nome_2"/><linearGradient id="Sfumatura_senza_nome_2-48" x1="49" y1="14.15" x2="170.79" y2="84.47" xlink:href="#Sfumatura_senza_nome_2"/><linearGradient id="Sfumatura_senza_nome_2-49" x1="39.99" y1="18.04" x2="175.32" y2="96.17" xlink:href="#Sfumatura_senza_nome_2"/><linearGradient id="Sfumatura_senza_nome_2-50" x1="57.11" y1="9.75" x2="166.73" y2="73.03" xlink:href="#Sfumatura_senza_nome_2"/><linearGradient id="Sfumatura_senza_nome_2-51" x1="64.41" y1="4.87" x2="163.06" y2="61.83" xlink:href="#Sfumatura_senza_nome_2"/><linearGradient id="Sfumatura_senza_nome_2-52" x1="73.5" y1="-15.88" x2="172.15" y2="41.07" xlink:href="#Sfumatura_senza_nome_2"/><linearGradient id="Sfumatura_senza_nome_2-53" x1="58.16" y1="-2.72" x2="193.49" y2="75.41" xlink:href="#Sfumatura_senza_nome_2"/><linearGradient id="Sfumatura_senza_nome_2-54" x1="67.18" y1="-6.6" x2="188.97" y2="63.72" xlink:href="#Sfumatura_senza_nome_2"/><linearGradient id="Sfumatura_senza_nome_2-55" x1="48.15" y1="0.59" x2="198.52" y2="87.4" xlink:href="#Sfumatura_senza_nome_2"/><linearGradient id="Sfumatura_senza_nome_2-56" x1="66.2" y1="-11.01" x2="175.81" y2="52.28" xlink:href="#Sfumatura_senza_nome_2"/><linearGradient id="Sfumatura_senza_nome_2-57" x1="75.29" y1="-11.01" x2="184.9" y2="52.28" xlink:href="#Sfumatura_senza_nome_2"/><linearGradient id="Sfumatura_senza_nome_2-58" x1="82.59" y1="-15.88" x2="181.24" y2="41.07" xlink:href="#Sfumatura_senza_nome_2"/><linearGradient id="Sfumatura_senza_nome_2-59" x1="10.93" y1="6.36" x2="217.19" y2="125.45" xlink:href="#Sfumatura_senza_nome_2"/><linearGradient id="Sfumatura_senza_nome_2-60" x1="29.97" y1="21.35" x2="180.34" y2="108.16" xlink:href="#Sfumatura_senza_nome_2"/><linearGradient id="Sfumatura_senza_nome_2-61" x1="24.66" y1="5.2" x2="210.3" y2="112.38" xlink:href="#Sfumatura_senza_nome_2"/><linearGradient id="Sfumatura_senza_nome_2-62" x1="37.02" y1="3.25" x2="204.1" y2="99.71" xlink:href="#Sfumatura_senza_nome_2"/><linearGradient id="Sfumatura_senza_nome_2-63" x1="49.08" y1="-2.72" x2="184.4" y2="75.41" xlink:href="#Sfumatura_senza_nome_2"/><linearGradient id="Sfumatura_senza_nome_2-64" x1="14.25" y1="79.88" x2="123.86" y2="143.17" xlink:href="#Sfumatura_senza_nome_2"/><linearGradient id="Sfumatura_senza_nome_2-65" x1="-5.46" y1="51.82" x2="129.87" y2="129.95" xlink:href="#Sfumatura_senza_nome_2"/><linearGradient id="Sfumatura_senza_nome_2-66" x1="-6.38" y1="46.04" x2="143.98" y2="132.85" xlink:href="#Sfumatura_senza_nome_2"/><linearGradient id="Sfumatura_senza_nome_2-67" x1="-5.53" y1="57.02" x2="116.26" y2="127.34" xlink:href="#Sfumatura_senza_nome_2"/><linearGradient id="Sfumatura_senza_nome_2-68" x1="14.75" y1="52.64" x2="124.37" y2="115.93" xlink:href="#Sfumatura_senza_nome_2"/><linearGradient id="Sfumatura_senza_nome_2-69" x1="-5.53" y1="66.11" x2="116.26" y2="136.43" xlink:href="#Sfumatura_senza_nome_2"/><linearGradient id="Sfumatura_senza_nome_2-70" x1="-8.3" y1="65.92" x2="90.36" y2="122.88" xlink:href="#Sfumatura_senza_nome_2"/><linearGradient id="Sfumatura_senza_nome_2-71" x1="-6.51" y1="70.8" x2="103.11" y2="134.08" xlink:href="#Sfumatura_senza_nome_2"/><linearGradient id="Sfumatura_senza_nome_2-72" x1="-6.51" y1="61.71" x2="103.11" y2="124.99" xlink:href="#Sfumatura_senza_nome_2"/><linearGradient id="Sfumatura_senza_nome_2-73" x1="15.73" y1="47.96" x2="137.53" y2="118.28" xlink:href="#Sfumatura_senza_nome_2"/><linearGradient id="Sfumatura_senza_nome_2-74" x1="-815.11" y1="-445.2" x2="624.73" y2="386.1" gradientTransform="translate(188.88 -65.88) rotate(67.5)" xlink:href="#Sfumatura_senza_nome_2"/><linearGradient id="Sfumatura_senza_nome_2-75" x1="-16.34" y1="24.55" x2="189.92" y2="143.63" xlink:href="#Sfumatura_senza_nome_2"/><linearGradient id="Sfumatura_senza_nome_2-76" x1="-16.34" y1="33.64" x2="189.92" y2="152.72" xlink:href="#Sfumatura_senza_nome_2"/><linearGradient id="Sfumatura_senza_nome_2-77" x1="-8.42" y1="48.7" x2="158.65" y2="145.16" xlink:href="#Sfumatura_senza_nome_2"/><linearGradient id="Sfumatura_senza_nome_2-78" x1="18.85" y1="24.01" x2="185.92" y2="120.47" xlink:href="#Sfumatura_senza_nome_2"/><linearGradient id="Sfumatura_senza_nome_2-79" x1="12.84" y1="30.55" x2="179.92" y2="127.01" xlink:href="#Sfumatura_senza_nome_2"/><linearGradient id="Sfumatura_senza_nome_2-80" x1="-8.42" y1="39.62" x2="158.65" y2="136.08" xlink:href="#Sfumatura_senza_nome_2"/><linearGradient id="Sfumatura_senza_nome_2-81" x1="14.88" y1="36.98" x2="165.25" y2="123.79" xlink:href="#Sfumatura_senza_nome_2"/><linearGradient id="Sfumatura_senza_nome_2-82" x1="-11.69" y1="32.48" x2="173.94" y2="139.66" xlink:href="#Sfumatura_senza_nome_2"/><linearGradient id="Sfumatura_senza_nome_2-83" x1="14.38" y1="64.22" x2="164.74" y2="151.03" xlink:href="#Sfumatura_senza_nome_2"/><linearGradient id="Sfumatura_senza_nome_2-84" x1="112.69" y1="60.91" x2="248.02" y2="139.04" xlink:href="#Sfumatura_senza_nome_2"/><linearGradient id="Sfumatura_senza_nome_2-85" x1="15.22" y1="75.2" x2="137.02" y2="145.52" xlink:href="#Sfumatura_senza_nome_2"/><linearGradient id="Sfumatura_senza_nome_2-86" x1="15.3" y1="70" x2="150.63" y2="148.13" xlink:href="#Sfumatura_senza_nome_2"/><linearGradient id="Sfumatura_senza_nome_2-87" x1="57.21" y1="21.35" x2="207.58" y2="108.16" xlink:href="#Sfumatura_senza_nome_2"/><linearGradient id="Sfumatura_senza_nome_2-88" x1="12.34" y1="57.79" x2="179.41" y2="154.25" xlink:href="#Sfumatura_senza_nome_2"/><linearGradient id="Sfumatura_senza_nome_2-89" x1="-11.69" y1="41.57" x2="173.94" y2="148.74" xlink:href="#Sfumatura_senza_nome_2"/><linearGradient id="Sfumatura_senza_nome_2-90" x1="15.81" y1="42.76" x2="151.13" y2="120.89" xlink:href="#Sfumatura_senza_nome_2"/><linearGradient id="Sfumatura_senza_nome_2-91" x1="164.38" y1="65.92" x2="263.04" y2="122.88" xlink:href="#Sfumatura_senza_nome_2"/><linearGradient id="Sfumatura_senza_nome_2-92" x1="12.96" y1="56.86" x2="111.62" y2="113.82" xlink:href="#Sfumatura_senza_nome_2"/><linearGradient id="Sfumatura_senza_nome_2-93" x1="164.38" y1="75.01" x2="263.04" y2="131.97" xlink:href="#Sfumatura_senza_nome_2"/><linearGradient id="Sfumatura_senza_nome_2-94" x1="-6.38" y1="55.13" x2="143.98" y2="141.94" xlink:href="#Sfumatura_senza_nome_2"/><linearGradient id="Sfumatura_senza_nome_2-95" x1="-5.46" y1="60.91" x2="129.87" y2="139.04" xlink:href="#Sfumatura_senza_nome_2"/><linearGradient id="Sfumatura_senza_nome_2-96" x1="67.18" y1="129.72" x2="188.97" y2="200.04" xlink:href="#Sfumatura_senza_nome_2"/><linearGradient id="Sfumatura_senza_nome_2-97" x1="82.59" y1="156.8" x2="181.24" y2="213.76" xlink:href="#Sfumatura_senza_nome_2"/><linearGradient id="Sfumatura_senza_nome_2-98" x1="75.29" y1="143.49" x2="184.9" y2="206.78" xlink:href="#Sfumatura_senza_nome_2"/><linearGradient id="Sfumatura_senza_nome_2-99" x1="91.68" y1="136.04" x2="190.33" y2="193" xlink:href="#Sfumatura_senza_nome_2"/><linearGradient id="Sfumatura_senza_nome_2-100" x1="58.16" y1="115.43" x2="193.49" y2="193.56" xlink:href="#Sfumatura_senza_nome_2"/><linearGradient id="Sfumatura_senza_nome_2-101" x1="58.09" y1="129.72" x2="179.88" y2="200.04" xlink:href="#Sfumatura_senza_nome_2"/><linearGradient id="Sfumatura_senza_nome_2-102" x1="49.08" y1="115.43" x2="184.4" y2="193.56" xlink:href="#Sfumatura_senza_nome_2"/><linearGradient id="Sfumatura_senza_nome_2-103" x1="66.2" y1="143.49" x2="175.82" y2="206.78" xlink:href="#Sfumatura_senza_nome_2"/><linearGradient id="Sfumatura_senza_nome_2-104" x1="73.5" y1="156.8" x2="172.15" y2="213.76" xlink:href="#Sfumatura_senza_nome_2"/><linearGradient id="Sfumatura_senza_nome_2-105" x1="57.13" y1="122.74" x2="166.75" y2="186.03" xlink:href="#Sfumatura_senza_nome_2"/><linearGradient id="Sfumatura_senza_nome_2-106" x1="64.43" y1="136.04" x2="163.09" y2="193" xlink:href="#Sfumatura_senza_nome_2"/><linearGradient id="Sfumatura_senza_nome_2-107" x1="29.1" y1="33.64" x2="235.37" y2="152.72" xlink:href="#Sfumatura_senza_nome_2"/><linearGradient id="Sfumatura_senza_nome_2-108" x1="52.12" y1="30.53" x2="219.19" y2="126.99" xlink:href="#Sfumatura_senza_nome_2"/><linearGradient id="Sfumatura_senza_nome_2-109" x1="29.1" y1="24.55" x2="235.37" y2="143.63" xlink:href="#Sfumatura_senza_nome_2"/><linearGradient id="Sfumatura_senza_nome_2-110" x1="12.46" y1="84.1" x2="111.11" y2="141.06" xlink:href="#Sfumatura_senza_nome_2"/><linearGradient id="Sfumatura_senza_nome_2-111" x1="52.12" y1="57.77" x2="219.19" y2="154.23" xlink:href="#Sfumatura_senza_nome_2"/><linearGradient id="Sfumatura_senza_nome_2-112" x1="67.23" y1="18.04" x2="202.56" y2="96.17" xlink:href="#Sfumatura_senza_nome_2"/><linearGradient id="Sfumatura_senza_nome_2-113" x1="76.24" y1="14.15" x2="198.04" y2="84.47" xlink:href="#Sfumatura_senza_nome_2"/><linearGradient id="Sfumatura_senza_nome_2-114" x1="72.33" y1="64.19" x2="222.7" y2="151.01" xlink:href="#Sfumatura_senza_nome_2"/><linearGradient id="Sfumatura_senza_nome_2-115" x1="84.35" y1="9.75" x2="193.97" y2="73.03" xlink:href="#Sfumatura_senza_nome_2"/><linearGradient id="Sfumatura_senza_nome_2-116" x1="91.65" y1="4.87" x2="190.31" y2="61.83" xlink:href="#Sfumatura_senza_nome_2"/><linearGradient id="Sfumatura_senza_nome_2-117" x1="73.38" y1="48.7" x2="240.45" y2="145.16" xlink:href="#Sfumatura_senza_nome_2"/><linearGradient id="Sfumatura_senza_nome_2-118" x1="72.33" y1="36.95" x2="222.7" y2="123.76" xlink:href="#Sfumatura_senza_nome_2"/><linearGradient id="Sfumatura_senza_nome_2-119" x1="126.73" y1="52.62" x2="236.35" y2="115.91" xlink:href="#Sfumatura_senza_nome_2"/><linearGradient id="Sfumatura_senza_nome_2-120" x1="112.69" y1="51.82" x2="248.02" y2="129.95" xlink:href="#Sfumatura_senza_nome_2"/><linearGradient id="Sfumatura_senza_nome_2-121" x1="73.38" y1="39.62" x2="240.45" y2="136.08" xlink:href="#Sfumatura_senza_nome_2"/><linearGradient id="Sfumatura_senza_nome_2-122" x1="84.38" y1="122.74" x2="193.99" y2="186.03" xlink:href="#Sfumatura_senza_nome_2"/><linearGradient id="Sfumatura_senza_nome_2-123" x1="130.79" y1="57.02" x2="252.59" y2="127.34" xlink:href="#Sfumatura_senza_nome_2"/><linearGradient id="Sfumatura_senza_nome_2-124" x1="51.93" y1="41.57" x2="237.56" y2="148.74" xlink:href="#Sfumatura_senza_nome_2"/><linearGradient id="Sfumatura_senza_nome_2-125" x1="51.93" y1="32.48" x2="237.56" y2="139.66" xlink:href="#Sfumatura_senza_nome_2"/><linearGradient id="Sfumatura_senza_nome_2-126" x1="91.43" y1="42.73" x2="226.76" y2="120.86" xlink:href="#Sfumatura_senza_nome_2"/></defs><title>logo</title><path class="cls-1" d="M26.71,136.77a6.72,6.72,0,0,0-1.46-.77q-.81-.31-1.65-.57l-.93-.3a4.46,4.46,0,0,1-.79-.35,2.06,2.06,0,0,1-.55-.43.87.87,0,0,1-.2-.56,1.15,1.15,0,0,1,.14-.55,1.29,1.29,0,0,1,.39-.45,2.12,2.12,0,0,1,.64-.31,3.36,3.36,0,0,1,.88-.11,2.27,2.27,0,0,1,.77.13,4.09,4.09,0,0,1,.71.3,5.63,5.63,0,0,1,.6.38,3.48,3.48,0,0,1,.43.38h0l.22.15a.43.43,0,0,0,.22.06.37.37,0,0,0,.19-.08,2,2,0,0,0,.26-.2,3.58,3.58,0,0,0,.29-.27l.27-.3h0l.27-.28a1.13,1.13,0,0,0,.13-.2.43.43,0,0,0,.06-.22.5.5,0,0,0-.12-.28,3.09,3.09,0,0,0-.31-.34c-.13-.11-.26-.23-.41-.34s-.29-.22-.44-.31a6.59,6.59,0,0,0-1.55-.69,5.56,5.56,0,0,0-1.64-.26,6.5,6.5,0,0,0-1.94.27,4.86,4.86,0,0,0-1.47.76,3.26,3.26,0,0,0-.95,1.17,3.42,3.42,0,0,0-.34,1.51,3,3,0,0,0,.28,1.33,3.26,3.26,0,0,0,.81,1.07,6.24,6.24,0,0,0,1.36.86,15,15,0,0,0,1.9.71l.94.28a4.62,4.62,0,0,1,.84.36,2.34,2.34,0,0,1,.61.49,1.05,1.05,0,0,1,.23.68,1.44,1.44,0,0,1-.18.71,1.82,1.82,0,0,1-.49.55,2.54,2.54,0,0,1-.74.35,3.36,3.36,0,0,1-.92.12,2.72,2.72,0,0,1-.76-.12,4.6,4.6,0,0,1-.81-.33,8,8,0,0,1-.8-.47,6.86,6.86,0,0,1-.7-.56h0l0,0a.86.86,0,0,0-.17-.15.4.4,0,0,0-.23-.08.43.43,0,0,0-.21.08c-.09.05-.18.12-.28.19a3.88,3.88,0,0,0-.31.26l-.28.26-.17.16-.13.13A.59.59,0,0,0,18,141a.68.68,0,0,0,.2.41v0h0a5.52,5.52,0,0,0,1,.93,6.16,6.16,0,0,0,1.18.71,6.47,6.47,0,0,0,1.3.46,6.24,6.24,0,0,0,1.36.16,6.49,6.49,0,0,0,2-.3,5,5,0,0,0,1.62-.86,3.9,3.9,0,0,0,1.08-1.34,3.85,3.85,0,0,0,.39-1.75,2.91,2.91,0,0,0-.39-1.54A3.85,3.85,0,0,0,26.71,136.77Z"/><path class="cls-2" d="M36.13,130.34a.45.45,0,0,0-.3-.09h-1a.51.51,0,0,0-.34.09.58.58,0,0,0-.17.21q-2.58,6.3-3.92,9.44c-.89,2.09-1.34,3.15-1.34,3.16a.31.31,0,0,0,.09.24.41.41,0,0,0,.31.09h1.85a.34.34,0,0,0,.33-.28l.88-2.07h5.64L39,143.2a.41.41,0,0,0,.13.22.45.45,0,0,0,.26.06h1.71a.55.55,0,0,0,.4-.11.4.4,0,0,0,.09-.25v-.05l-5.3-12.52A.58.58,0,0,0,36.13,130.34Zm-2.72,8.36,1.9-4.61,1.88,4.61Z"/><path class="cls-3" d="M53.83,130.25H52a.48.48,0,0,0-.21.06.37.37,0,0,0-.18.22v8.25l-5.85-8.25a.42.42,0,0,0-.23-.2.67.67,0,0,0-.29-.08H43.18a.34.34,0,0,0-.29.12.4.4,0,0,0-.1.28v12.44a.34.34,0,0,0,.39.39H45q.42,0,.39-.39v-8.81l6.19,8.9a2.2,2.2,0,0,0,.19.21.26.26,0,0,0,.19.09h1.89c.29,0,.44-.13.44-.39V130.65a.34.34,0,0,0-.15-.29A.53.53,0,0,0,53.83,130.25Z"/><path class="cls-4" d="M65.68,132.55a.52.52,0,0,0,.12-.34v-1.56a.36.36,0,0,0-.16-.3.53.53,0,0,0-.29-.1h-9.1a.45.45,0,0,0-.31.12.35.35,0,0,0-.13.28v1.56a.43.43,0,0,0,.44.47h3.24V143a.35.35,0,0,0,0,.17l.11.15.14.1a.43.43,0,0,0,.14,0H61.7a.3.3,0,0,0,.16,0,.69.69,0,0,0,.13-.11l.09-.15a.4.4,0,0,0,0-.15V132.68h3.24A.4.4,0,0,0,65.68,132.55Z"/><path class="cls-5" d="M72.1,130.34a.45.45,0,0,0-.3-.09h-1a.54.54,0,0,0-.35.09.58.58,0,0,0-.17.21q-2.58,6.3-3.92,9.44c-.89,2.09-1.33,3.15-1.33,3.16a.35.35,0,0,0,.08.24.43.43,0,0,0,.31.09h1.85a.32.32,0,0,0,.33-.28l.88-2.07H74.1L75,143.2a.35.35,0,0,0,.39.28h1.71a.53.53,0,0,0,.4-.11.4.4,0,0,0,.09-.25v-.05l-5.3-12.52A.5.5,0,0,0,72.1,130.34Zm-2.71,8.36,1.89-4.61,1.88,4.61Z"/><path class="cls-6" d="M93.19,130.25H84.73c-.26,0-.39.15-.39.43V143.1a.37.37,0,0,0,.11.29.45.45,0,0,0,.28.09h1.84c.27,0,.4-.13.4-.38v-4.5h4.77a.31.31,0,0,0,.28-.13.47.47,0,0,0,.09-.28v-1.6a.37.37,0,0,0-.11-.31.49.49,0,0,0-.3-.09H87v-3.51h6.2a.45.45,0,0,0,.34-.12.43.43,0,0,0,.11-.28v-1.57a.59.59,0,0,0-.1-.33A.42.42,0,0,0,93.19,130.25Z"/><path class="cls-7" d="M104.69,141.05H98.13v-3.24H103a.32.32,0,0,0,.28-.13.47.47,0,0,0,.09-.28v-1.62a.4.4,0,0,0-.1-.31.39.39,0,0,0-.29-.08H98.13v-2.71h6.33a.45.45,0,0,0,.34-.12.43.43,0,0,0,.11-.28v-1.57a.52.52,0,0,0-.1-.33.39.39,0,0,0-.33-.13H95.9c-.26,0-.39.15-.39.43V143.1a.34.34,0,0,0,.11.29.45.45,0,0,0,.28.09h8.81a.34.34,0,0,0,.39-.38v-1.62a.5.5,0,0,0-.08-.33C105,141.08,104.86,141.05,104.69,141.05Z"/><path class="cls-8" d="M114.67,143.48a.42.42,0,0,0,.48-.47v-4.27H118a3.94,3.94,0,0,0,1.65-.35,4.38,4.38,0,0,0,1.3-.94,4.48,4.48,0,0,0,.85-1.35,4.27,4.27,0,0,0,.3-1.58,4.39,4.39,0,0,0-.31-1.61,4.44,4.44,0,0,0-.87-1.37,4,4,0,0,0-1.31-.93,3.84,3.84,0,0,0-1.66-.36h-5a.46.46,0,0,0-.36.14.51.51,0,0,0-.13.37V143a.45.45,0,0,0,.13.35.48.48,0,0,0,.35.12Zm.48-10.91h2.47a1.64,1.64,0,0,1,.74.16,1.86,1.86,0,0,1,.59.44,1.91,1.91,0,0,1,.39.62,1.9,1.9,0,0,1,0,1.43,1.91,1.91,0,0,1-.39.62,1.67,1.67,0,0,1-.59.42,1.7,1.7,0,0,1-.74.16h-2.47Z"/><path class="cls-9" d="M133.9,143.07l-2.27-4.77a4.19,4.19,0,0,0,1.56-1.53,4.1,4.1,0,0,0,.44-1,4.39,4.39,0,0,0,.16-1.16,4.34,4.34,0,0,0-.33-1.68,4.43,4.43,0,0,0-.91-1.37,4.37,4.37,0,0,0-1.37-.93,4.17,4.17,0,0,0-1.7-.35h-5.37c-.26,0-.39.15-.39.43V143.1a.34.34,0,0,0,.11.29.45.45,0,0,0,.28.09H126a.34.34,0,0,0,.39-.38v-4.24h2.74l2,4.34c.07.19.18.28.34.28h2.13a.43.43,0,0,0,.31-.09.35.35,0,0,0,.08-.24.06.06,0,0,0,0,0A.08.08,0,0,1,133.9,143.07Zm-2.77-7.79a2,2,0,0,1-.35.6,1.66,1.66,0,0,1-.56.41,1.92,1.92,0,0,1-.77.15h-3.11v-3.76h3a1.73,1.73,0,0,1,.76.17,2.17,2.17,0,0,1,.59.44,1.88,1.88,0,0,1,.37.6,1.79,1.79,0,0,1,.14.67A2.18,2.18,0,0,1,131.13,135.28Z"/><path class="cls-10" d="M145.25,142.75a7.09,7.09,0,0,0,1.38-1.07,6.7,6.7,0,0,0,1.06-1.37,7.32,7.32,0,0,0,.69-1.62,6.95,6.95,0,0,0,0-3.62,7.6,7.6,0,0,0-.69-1.63,6.82,6.82,0,0,0-1.06-1.39,7,7,0,0,0-1.38-1.06,7.6,7.6,0,0,0-1.63-.69,6.87,6.87,0,0,0-1.81-.24,6.76,6.76,0,0,0-1.81.24,7.6,7.6,0,0,0-1.63.69,6.7,6.7,0,0,0-1.37,1.06,6.87,6.87,0,0,0-1.07,1.39,7.1,7.1,0,0,0-.68,1.63,6.95,6.95,0,0,0,0,3.62,6.85,6.85,0,0,0,.68,1.62,7.12,7.12,0,0,0,2.44,2.44,7.1,7.1,0,0,0,1.63.68,6.76,6.76,0,0,0,1.81.24,6.87,6.87,0,0,0,1.81-.24A7.1,7.1,0,0,0,145.25,142.75Zm-3.46-1.54a4.08,4.08,0,0,1-3.83-2.64,4.79,4.79,0,0,1,0-3.39,4.11,4.11,0,0,1,2.17-2.31,4.11,4.11,0,0,1,3.32,0,4.15,4.15,0,0,1,1.32.93,4.41,4.41,0,0,1,.86,1.38,4.79,4.79,0,0,1,0,3.39,4.48,4.48,0,0,1-.86,1.37,4,4,0,0,1-3,1.27Z"/><path class="cls-11" d="M156.24,140c0-.14,0-.28,0-.41v-8.81a.47.47,0,0,0-.14-.38.5.5,0,0,0-.37-.14h-1.67a.46.46,0,0,0-.34.13.53.53,0,0,0-.11.34V140a1.24,1.24,0,0,1-.1.47,1.46,1.46,0,0,1-.27.38,1.26,1.26,0,0,1-.87.36,1.7,1.7,0,0,1-.53-.07,1.9,1.9,0,0,1-.38-.17,1.26,1.26,0,0,1-.28-.2,1.59,1.59,0,0,0-.22-.18.33.33,0,0,0-.21-.06.49.49,0,0,0-.31.19l-.9,1a.61.61,0,0,0-.12.16.48.48,0,0,0,0,.2.33.33,0,0,0,.07.25,3.66,3.66,0,0,0,1.34,1,4,4,0,0,0,1.67.36,3.63,3.63,0,0,0,1.35-.25,3.76,3.76,0,0,0,1.13-.7,3.92,3.92,0,0,0,1.26-2.33A2.6,2.6,0,0,0,156.24,140Z"/><path class="cls-12" d="M167.92,132.68a.42.42,0,0,0,.33-.12.38.38,0,0,0,.11-.28v-1.57a.52.52,0,0,0-.1-.33.38.38,0,0,0-.32-.13h-8.59c-.26,0-.39.15-.39.43V143.1a.34.34,0,0,0,.12.29.4.4,0,0,0,.27.09h8.82a.34.34,0,0,0,.39-.38v-1.62a.57.57,0,0,0-.08-.33c0-.07-.16-.1-.33-.1h-6.56v-3.24h4.89a.35.35,0,0,0,.29-.13.47.47,0,0,0,.09-.28v-1.62a.4.4,0,0,0-.11-.31.37.37,0,0,0-.28-.08h-4.88v-2.71Z"/><path class="cls-13" d="M179.69,140.46a.45.45,0,0,0-.26-.2.54.54,0,0,0-.33.1,4,4,0,0,1-1.2.62,4.25,4.25,0,0,1-1.38.23,4.15,4.15,0,0,1-1.67-.34,4.06,4.06,0,0,1-1.3-.93,4.13,4.13,0,0,1-.86-1.37,4.79,4.79,0,0,1,0-3.39,4.13,4.13,0,0,1,2.16-2.31,4,4,0,0,1,1.67-.35,4.15,4.15,0,0,1,1.37.23,4.35,4.35,0,0,1,1.19.62.45.45,0,0,0,.32.09.5.5,0,0,0,.27-.21l.87-1.46a.38.38,0,0,0,0-.34.54.54,0,0,0-.22-.23,6.86,6.86,0,0,0-1.79-.86,6.91,6.91,0,0,0-3.82-.06,7.4,7.4,0,0,0-1.63.69,7,7,0,0,0-1.38,1.06,7.2,7.2,0,0,0-1.06,1.39,6.87,6.87,0,0,0-.69,5.25,6.48,6.48,0,0,0,.69,1.62,6.9,6.9,0,0,0,2.44,2.44,6.92,6.92,0,0,0,1.63.68,6.7,6.7,0,0,0,1.81.24,6.88,6.88,0,0,0,2-.3,7.37,7.37,0,0,0,1.81-.87.66.66,0,0,0,.22-.22.33.33,0,0,0,0-.33Z"/><path class="cls-14" d="M191.42,130.25h-9.09a.47.47,0,0,0-.32.12.35.35,0,0,0-.13.28v1.56a.45.45,0,0,0,.13.35.47.47,0,0,0,.32.12h3.23V143a.35.35,0,0,0,0,.17l.11.15.15.1a.38.38,0,0,0,.13,0h1.78a.3.3,0,0,0,.16,0,.69.69,0,0,0,.13-.11.6.6,0,0,0,.09-.15.4.4,0,0,0,0-.15V132.68h3.24a.42.42,0,0,0,.34-.13.58.58,0,0,0,.11-.34v-1.56a.36.36,0,0,0-.16-.3A.53.53,0,0,0,191.42,130.25Z"/><path class="cls-15" d="M208.7,140.46a.45.45,0,0,0-.26-.2.54.54,0,0,0-.33.1,4,4,0,0,1-1.2.62,4.25,4.25,0,0,1-1.38.23,4.07,4.07,0,0,1-1.66-.34,4,4,0,0,1-1.31-.93,4.13,4.13,0,0,1-.86-1.37,4.79,4.79,0,0,1,0-3.39,4.08,4.08,0,0,1,.86-1.38,4,4,0,0,1,1.31-.93,3.92,3.92,0,0,1,1.66-.35,4.15,4.15,0,0,1,1.37.23,4.35,4.35,0,0,1,1.19.62.46.46,0,0,0,.33.09.52.52,0,0,0,.26-.21l.87-1.46a.38.38,0,0,0,0-.34.49.49,0,0,0-.22-.23,6.85,6.85,0,0,0-5.61-.92,7.6,7.6,0,0,0-1.63.69,6.7,6.7,0,0,0-1.37,1.06,6.87,6.87,0,0,0-1.07,1.39,6.69,6.69,0,0,0-.68,1.63,6.68,6.68,0,0,0,0,3.62,6.46,6.46,0,0,0,.68,1.62,7.12,7.12,0,0,0,2.44,2.44,7.1,7.1,0,0,0,1.63.68,6.76,6.76,0,0,0,1.81.24,6.88,6.88,0,0,0,2-.3,7.37,7.37,0,0,0,1.81-.87.66.66,0,0,0,.22-.22.33.33,0,0,0,0-.33Z"/><path class="cls-16" d="M221.15,141.05h-6.56v-3.24h4.89a.35.35,0,0,0,.29-.13.47.47,0,0,0,.09-.28v-1.62a.4.4,0,0,0-.11-.31.37.37,0,0,0-.28-.08h-4.88v-2.71h6.33a.42.42,0,0,0,.33-.12.38.38,0,0,0,.11-.28v-1.57a.52.52,0,0,0-.1-.33.38.38,0,0,0-.32-.13h-8.59c-.26,0-.39.15-.39.43V143.1a.37.37,0,0,0,.11.29.45.45,0,0,0,.28.09h8.82a.34.34,0,0,0,.39-.38v-1.62a.57.57,0,0,0-.08-.33C221.43,141.08,221.32,141.05,221.15,141.05Z"/><path class="cls-17" d="M234.43,130.25h-1.79a.49.49,0,0,0-.22.06.46.46,0,0,0-.18.22v8.25l-5.85-8.25a.4.4,0,0,0-.22-.2.71.71,0,0,0-.29-.08h-2.1a.36.36,0,0,0-.29.12.45.45,0,0,0-.1.28v12.44a.34.34,0,0,0,.39.39h1.8c.28,0,.41-.13.4-.39v-8.81l6.18,8.9a2.12,2.12,0,0,0,.2.21.23.23,0,0,0,.18.09h1.89c.3,0,.44-.13.44-.39V130.65a.34.34,0,0,0-.15-.29A.53.53,0,0,0,234.43,130.25Z"/><path class="cls-18" d="M246,130.25h-9.09a.43.43,0,0,0-.31.12.37.37,0,0,0-.14.28v1.56a.45.45,0,0,0,.14.35.43.43,0,0,0,.31.12h3.23V143a.35.35,0,0,0,0,.17l.11.15.15.1a.37.37,0,0,0,.14,0h1.78a.3.3,0,0,0,.15,0,.47.47,0,0,0,.13-.11.6.6,0,0,0,.09-.15.42.42,0,0,0,0-.15V132.68H246a.42.42,0,0,0,.34-.13.58.58,0,0,0,.11-.34v-1.56a.38.38,0,0,0-.15-.3A.57.57,0,0,0,246,130.25Z"/><path class="cls-19" d="M257.55,141.05H251v-3.24h4.9a.33.33,0,0,0,.28-.13.47.47,0,0,0,.09-.28v-1.62a.4.4,0,0,0-.11-.31.36.36,0,0,0-.28-.08H251v-2.71h6.33a.42.42,0,0,0,.33-.12.38.38,0,0,0,.11-.28v-1.57a.58.58,0,0,0-.09-.33.42.42,0,0,0-.33-.13h-8.59c-.26,0-.39.15-.39.43V143.1a.34.34,0,0,0,.12.29.42.42,0,0,0,.27.09h8.82a.34.34,0,0,0,.39-.38v-1.62a.57.57,0,0,0-.08-.33C257.83,141.08,257.72,141.05,257.55,141.05Z"/><path class="cls-20" d="M270,143.11a.08.08,0,0,1,0,0l-2.27-4.77a4.19,4.19,0,0,0,1.56-1.53,4.1,4.1,0,0,0,.44-1,4.39,4.39,0,0,0,.16-1.16,4.34,4.34,0,0,0-.33-1.68,4.43,4.43,0,0,0-.91-1.37,4.37,4.37,0,0,0-1.37-.93,4.17,4.17,0,0,0-1.7-.35h-5.37c-.26,0-.39.15-.39.43V143.1a.34.34,0,0,0,.11.29.45.45,0,0,0,.28.09H262a.34.34,0,0,0,.39-.38v-4.24h2.74l2,4.34c.07.19.18.28.34.28h2.13a.43.43,0,0,0,.31-.09.35.35,0,0,0,.08-.24A.06.06,0,0,0,270,143.11Zm-2.78-7.83a2,2,0,0,1-.35.6,1.66,1.66,0,0,1-.56.41,1.92,1.92,0,0,1-.77.15h-3.11v-3.76h3.05a1.73,1.73,0,0,1,.76.17,2.17,2.17,0,0,1,.59.44,1.88,1.88,0,0,1,.37.6,1.79,1.79,0,0,1,.14.67A2.18,2.18,0,0,1,267.21,135.28Z"/><path class="cls-21" d="M122.57,150.84h-1a.29.29,0,0,0-.19.06.33.33,0,0,0-.11.15c-.27.7-.5,1.3-.7,1.8l-.48,1.26c-.14.34-.24.62-.33.83l-.2.51c0,.13-.09.23-.11.3l-.08.2-.88-2.31,1-2.5a.13.13,0,0,0,0-.06v0a.2.2,0,0,0,0-.15s-.09,0-.18,0h-1a.25.25,0,0,0-.27.19L116.19,156l-1.84-4.88a.41.41,0,0,0-.12-.18.35.35,0,0,0-.18,0h-1c-.15,0-.22.06-.22.19v.06s0,0,0,0l1.31,3.28c.45,1.1.89,2.2,1.32,3.29l0,.1a.34.34,0,0,0,.06.12l.1.09a.24.24,0,0,0,.15,0h.71a.3.3,0,0,0,.23-.11.89.89,0,0,0,.14-.25l.89-2.25c.17.39.33.79.5,1.21s.33.81.48,1.2a.29.29,0,0,0,.08.14.33.33,0,0,0,.21.06h.73a.21.21,0,0,0,.12,0L120,158l.05-.08a.14.14,0,0,0,0-.06c.31-.74.58-1.4.81-2s.44-1.07.62-1.5l.47-1.13.35-.85.27-.67.23-.57a.08.08,0,0,0,0,0V151a.2.2,0,0,0-.06-.15A.26.26,0,0,0,122.57,150.84Z"/><path class="cls-22" d="M128.8,152.28a2.3,2.3,0,0,0-.48-.74,2.43,2.43,0,0,0-.71-.51,2.12,2.12,0,0,0-.91-.19H124a.26.26,0,0,0-.2.07.32.32,0,0,0-.06.2v6.68a.25.25,0,0,0,.06.19.26.26,0,0,0,.2.07h.91a.23.23,0,0,0,.26-.26v-2.33h1.58a2.08,2.08,0,0,0,.9-.19,2.36,2.36,0,0,0,1.34-2.11A2.42,2.42,0,0,0,128.8,152.28Zm-1.36,1.27a1.15,1.15,0,0,1-.21.33.86.86,0,0,1-.33.23.9.9,0,0,1-.4.09h-1.35v-2.1h1.35a1,1,0,0,1,.41.09,1.08,1.08,0,0,1,.32.24,1.15,1.15,0,0,1,.21.33,1.07,1.07,0,0,1,.07.39A1.09,1.09,0,0,1,127.44,153.55Z"/><path class="cls-23" d="M131,158.05q.24,0,.24-.21v-6.79a.21.21,0,0,0-.08-.16.37.37,0,0,0-.16,0h-1a.19.19,0,0,0-.21.21v6.79a.19.19,0,0,0,.21.21Z"/><path class="cls-24" d="M141.22,154.88h-.88a.21.21,0,0,0-.16.06.2.2,0,0,0-.05.15v1.61a4.2,4.2,0,0,1-.47.08l-.45,0a2.27,2.27,0,0,1-.91-.18,2.43,2.43,0,0,1-.71-.51,2.22,2.22,0,0,1-.47-.75,2.55,2.55,0,0,1-.17-.92,2.6,2.6,0,0,1,.17-.93,2.22,2.22,0,0,1,.47-.75,2.43,2.43,0,0,1,.71-.51,2.28,2.28,0,0,1,.91-.19,2,2,0,0,1,.74.13,2.3,2.3,0,0,1,.66.34.24.24,0,0,0,.17,0,.24.24,0,0,0,.15-.11l.47-.8a.17.17,0,0,0,0-.18.25.25,0,0,0-.12-.13,4,4,0,0,0-1-.47,3.85,3.85,0,0,0-2.09,0,3.91,3.91,0,0,0-.89.38,3.77,3.77,0,0,0-.75.58,4.28,4.28,0,0,0-.58.75,4.08,4.08,0,0,0-.37.89,3.83,3.83,0,0,0,0,2,3.81,3.81,0,0,0,.37.88,4.28,4.28,0,0,0,.58.75,3.77,3.77,0,0,0,.75.58,3.49,3.49,0,0,0,.89.37,3.64,3.64,0,0,0,1,.14,4.13,4.13,0,0,0,1.11-.15,3.49,3.49,0,0,0,1-.45.22.22,0,0,0,.14-.22v-2.25a.16.16,0,0,0-.08-.15A.26.26,0,0,0,141.22,154.88Z"/><path class="cls-25" d="M147.4,157.84V157a.24.24,0,0,0-.06-.17.2.2,0,0,0-.15-.06h-2.84V151a.2.2,0,0,0-.22-.21h-1a.23.23,0,0,0-.16.06.2.2,0,0,0-.06.15v6.8a.19.19,0,0,0,.21.21h4.06Q147.4,158,147.4,157.84Z"/><path class="cls-26" d="M154.84,152.57a3.5,3.5,0,0,0-.58-.75,3.77,3.77,0,0,0-.75-.58,3.91,3.91,0,0,0-.89-.38,3.64,3.64,0,0,0-1-.13,3.51,3.51,0,0,0-1,.13,3.73,3.73,0,0,0-.89.38,3.27,3.27,0,0,0-.75.58,3.5,3.5,0,0,0-.58.75,4.11,4.11,0,0,0-.38.89,3.83,3.83,0,0,0,0,2,3.84,3.84,0,0,0,.38.88,3.5,3.5,0,0,0,.58.75,3.27,3.27,0,0,0,.75.58,3.34,3.34,0,0,0,.89.37,3.52,3.52,0,0,0,1,.14,3.64,3.64,0,0,0,1-.14,3.49,3.49,0,0,0,.89-.37,3.77,3.77,0,0,0,.75-.58,3.5,3.5,0,0,0,.58-.75,3.84,3.84,0,0,0,.38-.88,3.83,3.83,0,0,0,0-2A4.11,4.11,0,0,0,154.84,152.57Zm-1.12,2.8a2.39,2.39,0,0,1-.47.75,2.35,2.35,0,0,1-.72.51,2.27,2.27,0,0,1-.91.18,2.19,2.19,0,0,1-.9-.18,2.35,2.35,0,0,1-.72-.51,2.22,2.22,0,0,1-.47-.75,2.54,2.54,0,0,1-.16-.92,2.6,2.6,0,0,1,.16-.93,2.22,2.22,0,0,1,.47-.75,2.35,2.35,0,0,1,.72-.51,2.2,2.2,0,0,1,.9-.19,2.28,2.28,0,0,1,.91.19,2.35,2.35,0,0,1,.72.51,2.39,2.39,0,0,1,.47.75,2.6,2.6,0,0,1,.17.93A2.55,2.55,0,0,1,153.72,155.37Z"/><path class="cls-27" d="M161.87,154.93a3.62,3.62,0,0,0-.27-.41,2.79,2.79,0,0,0-.35-.34,1.84,1.84,0,0,0,.37-.6,2,2,0,0,0,.14-.73,2.11,2.11,0,0,0-.16-.8,2,2,0,0,0-.44-.63,2.1,2.1,0,0,0-.65-.43,2.06,2.06,0,0,0-.79-.15h-2.88a.26.26,0,0,0-.2.07.27.27,0,0,0-.07.2v6.68a.22.22,0,0,0,.07.19.27.27,0,0,0,.2.07H160a1.88,1.88,0,0,0,.81-.18,2.06,2.06,0,0,0,.66-.46,2.29,2.29,0,0,0,.45-.69,2.16,2.16,0,0,0,.1-1.32A2.68,2.68,0,0,0,161.87,154.93ZM158,152.09h1.45a.91.91,0,0,1,.62.21.72.72,0,0,1,.24.57.84.84,0,0,1-.07.35,1,1,0,0,1-.17.28.9.9,0,0,1-.28.18.84.84,0,0,1-.35.07H158Zm2.56,4.13a.81.81,0,0,1-.19.29.86.86,0,0,1-.29.21.81.81,0,0,1-.35.07H158V154.9h1.73a.73.73,0,0,1,.36.08.85.85,0,0,1,.28.22.89.89,0,0,1,.19.31.84.84,0,0,1,.07.35A.86.86,0,0,1,160.57,156.22Z"/><path class="cls-28" d="M166.48,150.88a.29.29,0,0,0-.17,0h-.56a.32.32,0,0,0-.19,0,.27.27,0,0,0-.09.12c-.94,2.29-1.66,4-2.14,5.15s-.73,1.71-.73,1.72a.17.17,0,0,0,.05.13.22.22,0,0,0,.16.05h1c.1,0,.15-.05.18-.15l.49-1.13h3.07l.49,1.13a.18.18,0,0,0,.07.12.26.26,0,0,0,.14,0h.93a.29.29,0,0,0,.22-.06.24.24,0,0,0,.05-.14v0L166.57,151A.27.27,0,0,0,166.48,150.88ZM165,155.44l1-2.51,1,2.51Z"/><path class="cls-29" d="M174.38,156.72h-2.84V151a.2.2,0,0,0-.22-.21h-1a.21.21,0,0,0-.16.06.2.2,0,0,0-.06.15v6.8a.19.19,0,0,0,.21.21h4.06q.21,0,.21-.21V157a.24.24,0,0,0-.06-.17A.2.2,0,0,0,174.38,156.72Z"/><circle class="cls-30" cx="193.73" cy="112.94" r="1.66"/><path class="cls-31" d="M208.82,93.68a1.09,1.09,0,1,0,1.09,1.08A1.08,1.08,0,0,0,208.82,93.68Z"/><circle class="cls-32" cx="211.9" cy="112.94" r="1.34"/><path class="cls-33" d="M183.05,122a1.5,1.5,0,1,0-1.5,1.49A1.5,1.5,0,0,0,183.05,122Z"/><circle class="cls-34" cx="220.99" cy="103.85" r="1.21"/><circle class="cls-35" cx="57.4" cy="112.94" r="1.09"/><path class="cls-36" d="M208.82,120.92a1.09,1.09,0,1,0,1.09,1.09A1.09,1.09,0,0,0,208.82,120.92Z"/><path class="cls-37" d="M190.64,120.66A1.35,1.35,0,1,0,192,122,1.34,1.34,0,0,0,190.64,120.66Z"/><circle class="cls-38" cx="193.73" cy="103.85" r="1.66"/><path class="cls-39" d="M199.73,123.21a1.21,1.21,0,1,0-1.21-1.2A1.21,1.21,0,0,0,199.73,123.21Z"/><path class="cls-40" d="M190.64,93.42A1.35,1.35,0,1,0,192,94.76,1.34,1.34,0,0,0,190.64,93.42Z"/><circle class="cls-41" cx="220.99" cy="112.94" r="1.21"/><circle class="cls-42" cx="139.2" cy="67.49" r="1.84"/><path class="cls-43" d="M139.2,78.62a2,2,0,1,0-2-2A2,2,0,0,0,139.2,78.62Z"/><circle class="cls-44" cx="139.2" cy="40.22" r="1.34"/><path class="cls-45" d="M139.2,87.94a2.28,2.28,0,1,0-2.28-2.27A2.27,2.27,0,0,0,139.2,87.94Z"/><circle class="cls-46" cx="139.2" cy="58.4" r="1.66"/><circle class="cls-47" cx="157.35" cy="88.25" r="1.84"/><path class="cls-48" d="M130.11,62.32A1.34,1.34,0,1,0,128.77,61,1.34,1.34,0,0,0,130.11,62.32Z"/><path class="cls-49" d="M130.11,71.56a1.49,1.49,0,1,0-1.49-1.49A1.49,1.49,0,0,0,130.11,71.56Z"/><circle class="cls-50" cx="130.11" cy="51.89" r="1.21"/><path class="cls-51" d="M130.11,43.89A1.09,1.09,0,1,0,129,42.8,1.08,1.08,0,0,0,130.11,43.89Z"/><circle class="cls-52" cx="139.2" cy="22.05" r="1.09"/><path class="cls-53" d="M148.28,50.8a1.49,1.49,0,1,0-1.49-1.49A1.49,1.49,0,0,0,148.28,50.8Z"/><path class="cls-54" d="M148.28,41.57a1.35,1.35,0,1,0-1.34-1.35A1.34,1.34,0,0,0,148.28,41.57Z"/><path class="cls-55" d="M148.28,60.06a1.66,1.66,0,1,0-1.65-1.66A1.66,1.66,0,0,0,148.28,60.06Z"/><circle class="cls-56" cx="139.2" cy="31.14" r="1.21"/><path class="cls-57" d="M148.28,32.34a1.21,1.21,0,1,0-1.2-1.2A1.21,1.21,0,0,0,148.28,32.34Z"/><path class="cls-58" d="M148.28,23.13a1.09,1.09,0,1,0-1.08-1.08A1.08,1.08,0,0,0,148.28,23.13Z"/><path class="cls-59" d="M148.28,87.94A2.28,2.28,0,1,0,146,85.67,2.28,2.28,0,0,0,148.28,87.94Z"/><path class="cls-60" d="M130.11,80.81a1.66,1.66,0,1,0-1.66-1.65A1.65,1.65,0,0,0,130.11,80.81Z"/><path class="cls-61" d="M148.28,78.62a2,2,0,1,0-2-2A2,2,0,0,0,148.28,78.62Z"/><path class="cls-62" d="M148.28,69.33a1.84,1.84,0,1,0-1.84-1.84A1.84,1.84,0,0,0,148.28,69.33Z"/><path class="cls-63" d="M139.2,50.8a1.49,1.49,0,1,0-1.49-1.49A1.49,1.49,0,0,0,139.2,50.8Z"/><circle class="cls-64" cx="87.25" cy="122.03" r="1.21"/><circle class="cls-65" cx="84.67" cy="103.85" r="1.49"/><circle class="cls-66" cx="93.75" cy="103.85" r="1.66"/><circle class="cls-67" cx="75.58" cy="103.85" r="1.34"/><circle class="cls-68" cx="87.75" cy="94.79" r="1.21"/><circle class="cls-69" cx="75.58" cy="112.94" r="1.34"/><circle class="cls-70" cx="57.4" cy="103.85" r="1.09"/><circle class="cls-71" cx="66.49" cy="112.94" r="1.21"/><circle class="cls-72" cx="66.49" cy="103.85" r="1.21"/><path class="cls-73" d="M96.84,96.13a1.34,1.34,0,1,0-1.34-1.34A1.34,1.34,0,0,0,96.84,96.13Z"/><circle class="cls-74" cx="143.74" cy="108.4" r="15.86" transform="translate(-11.41 199.71) rotate(-67.5)"/><path class="cls-75" d="M121,106.13a2.28,2.28,0,1,0-2.27-2.28A2.28,2.28,0,0,0,121,106.13Z"/><path class="cls-76" d="M121,115.21a2.27,2.27,0,1,0-2.27-2.27A2.27,2.27,0,0,0,121,115.21Z"/><circle class="cls-77" cx="102.84" cy="112.94" r="1.84"/><circle class="cls-78" cx="130.11" cy="88.25" r="1.84"/><path class="cls-79" d="M124.1,96.63a1.84,1.84,0,1,0-1.84-1.84A1.84,1.84,0,0,0,124.1,96.63Z"/><circle class="cls-80" cx="102.84" cy="103.85" r="1.84"/><path class="cls-81" d="M115,96.44a1.66,1.66,0,1,0-1.66-1.65A1.65,1.65,0,0,0,115,96.44Z"/><path class="cls-82" d="M111.93,105.9a2,2,0,1,0-2-2.05A2.05,2.05,0,0,0,111.93,105.9Z"/><path class="cls-83" d="M112.85,122a1.66,1.66,0,1,0,1.66-1.66A1.67,1.67,0,0,0,112.85,122Z"/><circle class="cls-84" cx="202.82" cy="112.94" r="1.49"/><path class="cls-85" d="M97.68,122a1.35,1.35,0,1,0-1.35,1.34A1.35,1.35,0,0,0,97.68,122Z"/><path class="cls-86" d="M105.42,120.54a1.49,1.49,0,1,0,1.49,1.49A1.49,1.49,0,0,0,105.42,120.54Z"/><path class="cls-87" d="M157.35,80.81a1.66,1.66,0,1,0-1.66-1.65A1.66,1.66,0,0,0,157.35,80.81Z"/><circle class="cls-88" cx="123.6" cy="122.03" r="1.84"/><path class="cls-89" d="M114,112.94a2,2,0,1,0-2,2A2,2,0,0,0,114,112.94Z"/><path class="cls-90" d="M105.93,93.3a1.49,1.49,0,1,0,1.49,1.49A1.49,1.49,0,0,0,105.93,93.3Z"/><circle class="cls-91" cx="230.08" cy="103.85" r="1.09"/><circle class="cls-92" cx="78.66" cy="94.79" r="1.09"/><circle class="cls-93" cx="230.08" cy="112.94" r="1.09"/><circle class="cls-94" cx="93.75" cy="112.94" r="1.66"/><circle class="cls-95" cx="84.67" cy="112.94" r="1.49"/><path class="cls-96" d="M148.29,175.21a1.34,1.34,0,1,0,1.34,1.34A1.34,1.34,0,0,0,148.29,175.21Z"/><path class="cls-97" d="M148.29,193.64a1.09,1.09,0,1,0,1.08,1.09A1.09,1.09,0,0,0,148.29,193.64Z"/><circle class="cls-98" cx="148.29" cy="185.64" r="1.21"/><circle class="cls-99" cx="157.37" cy="173.97" r="1.09"/><path class="cls-100" d="M148.29,166a1.49,1.49,0,1,0,1.49,1.49A1.49,1.49,0,0,0,148.29,166Z"/><path class="cls-101" d="M139.2,175.21a1.34,1.34,0,1,0,1.34,1.34A1.34,1.34,0,0,0,139.2,175.21Z"/><path class="cls-102" d="M139.2,166a1.49,1.49,0,1,0,1.49,1.49A1.49,1.49,0,0,0,139.2,166Z"/><circle class="cls-103" cx="139.2" cy="185.64" r="1.21"/><path class="cls-104" d="M139.2,193.64a1.09,1.09,0,1,0,1.08,1.09A1.09,1.09,0,0,0,139.2,193.64Z"/><circle class="cls-105" cx="130.13" cy="164.88" r="1.21"/><circle class="cls-106" cx="130.13" cy="173.97" r="1.09"/><path class="cls-107" d="M166.46,110.67a2.27,2.27,0,1,0,2.27,2.27A2.27,2.27,0,0,0,166.46,110.67Z"/><path class="cls-108" d="M163.38,96.6a1.84,1.84,0,1,0-1.84-1.84A1.84,1.84,0,0,0,163.38,96.6Z"/><path class="cls-109" d="M164.19,103.85a2.27,2.27,0,1,0,2.27-2.27A2.27,2.27,0,0,0,164.19,103.85Z"/><circle class="cls-110" cx="78.16" cy="122.03" r="1.09"/><path class="cls-111" d="M163.38,123.85a1.85,1.85,0,1,0-1.84-1.84A1.85,1.85,0,0,0,163.38,123.85Z"/><path class="cls-112" d="M157.35,71.56a1.49,1.49,0,1,0-1.49-1.49A1.49,1.49,0,0,0,157.35,71.56Z"/><path class="cls-113" d="M157.35,62.32A1.34,1.34,0,1,0,156,61,1.34,1.34,0,0,0,157.35,62.32Z"/><path class="cls-114" d="M172.47,123.66a1.66,1.66,0,1,0-1.66-1.65A1.65,1.65,0,0,0,172.47,123.66Z"/><path class="cls-115" d="M157.35,53.1a1.21,1.21,0,1,0-1.21-1.21A1.21,1.21,0,0,0,157.35,53.1Z"/><path class="cls-116" d="M157.35,43.89a1.09,1.09,0,1,0-1.09-1.09A1.09,1.09,0,0,0,157.35,43.89Z"/><circle class="cls-117" cx="184.64" cy="112.94" r="1.84"/><path class="cls-118" d="M172.47,96.42a1.66,1.66,0,1,0-1.66-1.66A1.65,1.65,0,0,0,172.47,96.42Z"/><path class="cls-119" d="M199.73,96a1.21,1.21,0,1,0-1.21-1.21A1.21,1.21,0,0,0,199.73,96Z"/><circle class="cls-120" cx="202.82" cy="103.85" r="1.49"/><circle class="cls-121" cx="184.64" cy="103.85" r="1.84"/><circle class="cls-122" cx="157.37" cy="164.88" r="1.21"/><circle class="cls-123" cx="211.9" cy="103.85" r="1.34"/><path class="cls-124" d="M175.55,110.9a2,2,0,1,0,2,2A2,2,0,0,0,175.55,110.9Z"/><path class="cls-125" d="M173.51,103.85a2,2,0,1,0,2-2A2,2,0,0,0,173.51,103.85Z"/><path class="cls-126" d="M181.55,96.25a1.49,1.49,0,1,0-1.49-1.49A1.49,1.49,0,0,0,181.55,96.25Z"/></svg>